<svg xmlns="http://www.w3.org/2000/svg" xmlns:xlink="http://www.w3.org/1999/xlink" width="1903" zoomAndPan="magnify" viewBox="0 0 1427.25 461.999983" height="616" preserveAspectRatio="xMidYMid meet" version="1.0"><defs><g/><clipPath id="cec9d86794"><path d="M 0 0.121094 L 1426.5 0.121094 L 1426.5 461.878906 L 0 461.878906 Z M 0 0.121094 " clip-rule="nonzero"/></clipPath></defs><g clip-path="url(#cec9d86794)"><path stroke-linecap="butt" transform="matrix(1.457696, 0, 0, 1.457696, 87.158731, 122.047617)" fill="none" stroke-linejoin="miter" d="M 225.257455 -0.745478 C 231.174327 -8.642679 237.198388 -14.452361 243.329639 -18.174523 C 249.487687 -21.896685 256.128089 -23.756427 263.248165 -23.756427 C 267.077517 -23.756427 270.16994 -22.872112 272.525434 -21.106161 C 274.880927 -19.367008 276.060014 -17.075829 276.060014 -14.237981 C 276.060014 -12.68641 275.671451 -11.225951 274.894326 -9.861962 C 274.143998 -8.495293 273.168572 -7.292089 271.962688 -6.246989 C 270.759483 -5.204569 269.325821 -4.347051 267.66706 -3.677116 C 266.032418 -3.033978 264.400454 -2.712409 262.765811 -2.712409 C 261.53581 -2.712409 260.758684 -2.899991 260.437115 -3.275154 C 260.115546 -3.677116 259.673388 -4.802608 259.113322 -6.64895 C 259.006133 -7.104507 258.563975 -7.519867 257.78685 -7.895031 C 257.036522 -8.267515 256.275475 -8.455097 255.49835 -8.455097 C 250.144224 -8.455097 245.323367 -5.496661 241.041139 0.417531 C 246.073695 1.167859 250.680173 2.588122 254.855211 4.675642 C 259.03293 6.763161 262.591628 9.37323 265.536665 12.505849 C 268.5085 15.638468 270.813078 19.26684 272.445041 23.388284 C 274.103802 27.48561 274.934522 31.891107 274.934522 36.602094 C 274.934522 41.983017 274.050207 47.082567 272.284257 51.903424 C 270.545104 56.721601 268.160133 60.936836 265.137383 64.551809 C 262.111954 68.166781 258.61757 71.044825 254.654231 73.185939 C 250.720369 75.327053 246.569448 76.39895 242.204147 76.39895 C 236.370347 76.39895 231.589687 74.753589 227.867524 71.460185 C 224.148042 68.166781 222.285621 64.002461 222.285621 58.969905 C 222.285621 56.989575 222.526798 55.046762 223.009151 53.146824 C 223.518302 51.22009 224.148042 49.491656 224.89837 47.966882 C 225.672815 46.412632 226.583928 45.18263 227.629027 44.271517 C 228.671447 43.336287 229.689749 42.867332 230.681254 42.867332 C 231.428902 42.867332 231.938053 43.028117 232.206028 43.349686 C 232.500799 43.668575 232.916159 44.485897 233.452108 45.79897 C 234.226553 47.7793 235.606621 48.770805 237.586951 48.770805 C 238.900024 48.770805 240.183621 48.328647 241.4431 47.444332 C 242.699899 46.560017 243.825391 45.38361 244.816896 43.909752 C 245.805721 42.438573 246.596245 40.80393 247.185788 39.011183 C 247.802129 37.191637 248.10762 35.28902 248.10762 33.308691 C 248.10762 28.704893 246.703435 24.808547 243.892385 21.622333 C 241.108132 18.43612 237.251983 16.361999 232.326616 15.397291 C 230.453476 19.869782 228.993016 23.482075 227.947917 26.23953 C 226.905497 28.972867 225.954188 31.716923 225.096671 34.474379 C 224.750984 35.329216 224.523206 35.932158 224.416016 36.280525 C 224.308826 36.602094 224.228434 36.870068 224.174839 37.084448 C 224.121244 37.298827 224.040852 37.5802 223.933662 37.925887 C 223.826473 38.247456 223.665688 38.850398 223.451309 39.734713 C 222.781373 42.143802 221.819346 45.90616 220.559867 51.019109 C 219.300388 56.10526 217.735418 62.598276 215.862278 70.495478 C 211.2558 89.130407 203.854352 103.319644 193.652572 113.063188 C 183.453472 122.836209 170.842603 127.721379 155.825326 127.721379 C 150.334534 127.721379 145.288579 126.890659 140.684781 125.231899 C 136.078304 123.599935 132.104245 121.348952 128.757247 118.484307 C 125.410248 115.64646 122.800179 112.221749 120.927039 108.204815 C 119.078017 104.214678 118.156185 99.865456 118.156185 95.154468 C 118.156185 88.916028 119.855142 82.972359 123.255736 77.323462 C 126.656329 71.674564 131.206532 67.148479 136.909024 63.747886 C 140.738376 61.553177 144.873218 59.800625 149.318911 58.487551 C 153.761924 57.177157 157.845852 56.52062 161.568014 56.52062 C 164.32547 56.52062 166.546976 56.989575 168.232534 57.924805 C 169.947569 58.835918 170.802407 60.068599 170.802407 61.62017 C 170.802407 62.263309 170.681819 62.812656 170.440642 63.268212 C 170.228942 63.694291 169.358026 64.833182 167.830573 66.679524 C 167.190114 67.671029 166.868545 68.823318 166.868545 70.133712 C 166.868545 72.116722 167.736782 73.855875 169.478614 75.353851 C 171.244565 76.827709 173.332084 77.564638 175.743852 77.564638 C 178.5817 77.564638 181.540136 76.747317 184.61916 75.112674 C 187.695504 73.453913 190.335051 71.192211 192.52976 68.327566 C 194.268913 66.159654 195.849961 63.613899 197.267544 60.698339 C 198.714605 57.780099 200.413562 53.642577 202.367094 48.288451 C 203.572979 45.102237 204.69847 42.090207 205.74089 39.252359 C 206.78599 36.387715 207.908802 33.697253 209.114686 31.180975 L 215.058355 18.650499 C 215.272735 18.11455 215.513911 17.581282 215.781886 17.045333 C 216.04986 16.482587 216.304435 15.93324 216.542932 15.397291 C 213.359398 15.93324 210.880636 16.509385 209.114686 17.125725 C 207.375533 17.712589 205.620302 18.556708 203.854352 19.655402 C 202.005329 20.858607 200.44036 22.372661 199.154083 24.192206 C 197.897284 25.987634 197.267544 27.5928 197.267544 29.013063 C 197.267544 30.243065 197.562316 31.167576 198.151859 31.783917 C 198.7682 32.370781 200.172385 33.094311 202.367094 33.951829 C 203.25141 34.300195 203.693567 35.021046 203.693567 36.11974 C 203.693567 38.31445 202.273303 41.165696 199.435456 44.673479 C 196.356432 48.181262 192.94512 50.898521 189.19616 52.825255 C 185.473998 54.727873 181.70092 55.676501 177.871568 55.676501 C 172.061886 55.676501 167.257108 54.004342 163.454553 50.657344 C 159.678796 47.310345 157.792257 43.068313 157.792257 37.925887 C 157.792257 31.02019 160.536314 24.687959 166.024426 18.931872 C 171.512539 13.175785 179.302551 8.478196 189.397141 4.836426 C 200.025 1.114264 210.987826 -0.745478 222.285621 -0.745478 Z M 278.514658 63.589781 C 278.755835 62.812656 278.903221 61.955138 278.956816 61.017228 C 279.010411 60.081998 279.037208 59.184284 279.037208 58.326767 C 279.037208 56.989575 278.782632 55.971273 278.273481 55.27454 C 277.791128 54.553689 276.893414 53.749767 275.58302 52.865452 C 277.000604 51.555057 278.635247 50.322376 280.481589 49.172766 C 282.357409 48.020477 284.284144 47.042371 286.264474 46.241128 C 288.244803 45.410408 290.187617 44.753871 292.087554 44.271517 C 294.014289 43.762366 295.809716 43.507791 297.468477 43.507791 C 300.306324 43.507791 302.568027 44.191125 304.256265 45.557794 C 305.96862 46.921783 306.826138 48.811001 306.826138 51.22009 C 306.826138 51.782836 306.772543 52.503686 306.665353 53.388001 C 306.558164 54.245519 306.397379 55.502318 306.183 57.163759 C 307.817643 55.636305 309.101239 54.433101 310.039149 53.548786 C 310.977059 52.664471 311.764904 51.930221 312.408042 51.340678 C 313.077977 50.724337 313.654122 50.255382 314.133796 49.933813 C 314.642947 49.585447 315.219092 49.145969 315.86223 48.61002 C 317.73537 47.189757 319.903282 46.066945 322.368645 45.236225 C 324.831328 44.405504 327.160024 43.990144 329.354733 43.990144 C 332.969706 43.990144 335.928142 45.062041 338.230041 47.203156 C 340.53194 49.34427 341.684229 52.168718 341.684229 55.676501 C 341.684229 58.19278 341.215274 60.604548 340.277364 62.906447 C 339.368931 65.208346 338.109452 67.24227 336.504287 69.0109 C 334.923238 70.750053 333.117092 72.143519 331.083167 73.185939 C 329.046563 74.231039 326.932246 74.753589 324.737537 74.753589 C 322.114069 74.753589 319.809491 73.989862 317.829161 72.462409 C 315.875629 70.910838 314.897523 69.104691 314.897523 67.04129 C 314.897523 66.692923 314.92432 66.30704 314.977915 65.878281 C 315.03151 65.449522 315.111902 64.95377 315.219092 64.391024 C 313.024383 65.596908 311.151242 66.920701 309.596992 68.367762 C 308.072218 69.785346 306.70555 71.40659 305.499665 73.226135 C 304.296461 75.021563 303.224564 77.149278 302.289334 79.611962 C 301.378221 82.074645 300.480508 85.006283 299.598872 88.406877 L 298.111615 95.154468 C 296.238475 103.05167 292.020561 106.99893 285.460551 106.99893 L 279.037208 106.99893 C 277.161388 106.99893 275.36864 107.293702 273.656285 107.883245 C 271.968047 108.499586 270.202097 109.571483 268.353075 111.096257 Z M 407.316483 80.697257 C 406.676024 83.535105 406.354455 85.448441 406.354455 86.439946 C 406.354455 87.64315 406.810012 88.68825 407.718444 89.569885 C 408.656354 90.4542 409.84884 90.896358 411.293221 90.896358 C 412.499105 90.896358 413.581721 90.668579 414.546428 90.213023 C 416.848327 89.569885 418.121205 89.250996 418.362382 89.250996 C 419.11003 89.250996 419.753168 89.529689 420.289117 90.092435 C 420.851862 90.628383 421.133235 91.325116 421.133235 92.182634 C 421.133235 93.948584 420.222123 95.794927 418.402578 97.724341 C 416.60715 99.624279 414.332049 101.403628 411.574594 103.065068 C 408.843936 104.697032 405.858703 106.0637 402.618894 107.159715 C 399.405883 108.258409 396.367055 108.807757 393.50241 108.807757 C 389.675738 108.807757 386.489524 107.548278 383.946448 105.031999 C 381.42749 102.515721 380.170691 99.329507 380.170691 95.473358 C 380.170691 94.940089 380.170691 94.377343 380.170691 93.7878 C 380.170691 93.171459 380.224286 92.474726 380.331476 91.70028 C 378.911212 93.466231 377.761603 94.899893 376.877288 95.995908 C 376.01977 97.094602 375.258723 98.032512 374.588787 98.806957 C 373.945649 99.557285 373.31591 100.213822 372.699569 100.776568 C 372.112705 101.309837 371.482966 101.89938 370.81303 102.542519 C 368.725511 104.630038 366.356618 106.251282 363.706353 107.400892 C 361.080205 108.553181 358.617522 109.129326 356.315623 109.129326 C 351.390256 109.129326 347.359924 107.10612 344.227305 103.065068 C 341.121483 98.994539 339.569912 93.7878 339.569912 87.442169 C 339.569912 81.954057 340.601613 76.586532 342.662335 71.339597 C 344.749854 66.065863 347.467113 61.365595 350.814112 57.244151 C 354.16111 53.120027 358.003861 49.826623 362.339684 47.36394 C 366.678187 44.901257 371.147998 43.668575 375.751796 43.668575 C 382.204616 43.668575 387.518545 46.026749 391.696264 50.737736 C 393.676593 49.317472 395.37823 48.167863 396.795814 47.283548 C 398.216077 46.399233 399.472877 45.718578 400.571571 45.236225 C 401.667586 44.753871 402.685888 44.432302 403.623798 44.271517 C 404.559028 44.083935 405.57733 43.990144 406.676024 43.990144 C 408.870734 43.990144 410.650083 44.566289 412.016751 45.718578 C 413.38074 46.868188 414.01048 48.328647 413.90329 50.094598 C 413.90329 51.193292 413.742506 52.289307 413.420936 53.388001 Z M 379.849122 60.776051 C 377.440033 60.776051 375.325717 61.847948 373.503492 63.989063 C 371.710744 66.132857 370.81303 68.568743 370.81303 71.2994 C 370.81303 75.474439 372.619177 77.564638 376.234149 77.564638 C 377.332844 77.564638 378.402061 77.243069 379.447161 76.599931 C 380.49226 75.929995 381.414092 75.04836 382.218014 73.949666 C 383.048735 72.850971 383.705271 71.620969 384.184945 70.254301 C 384.694096 68.863514 384.948672 67.403055 384.948672 65.878281 C 384.948672 62.477688 383.249715 60.776051 379.849122 60.776051 Z M 496.163347 47.605117 C 497.68812 43.561385 499.081586 39.949093 500.341065 36.762879 C 501.597864 33.576665 502.776951 30.725419 503.872966 28.209141 C 504.97166 25.692862 506.043557 23.364166 507.085977 21.220372 C 508.131077 19.079258 509.200294 16.964941 510.298988 14.874742 C 514.902786 6.763161 520.219395 0.457727 526.243456 -4.038881 C 532.264838 -8.535489 538.516677 -10.786473 544.996295 -10.786473 C 550.913166 -10.786473 555.704546 -8.93745 559.373113 -5.244765 C 563.068478 -1.576198 564.914821 3.217862 564.914821 9.132053 C 564.914821 15.156115 563.457041 21.13998 560.538801 27.083649 C 557.647359 33.00052 553.697419 38.475234 548.69166 43.507791 C 543.710018 48.543027 537.873539 52.932445 531.182222 56.681405 C 524.488225 60.403567 517.314554 63.08063 509.65585 64.712593 C 508.104279 68.783122 506.442839 72.596396 504.676889 76.157774 C 502.937736 79.719151 501.463877 82.208632 500.260673 83.628896 C 503.444207 85.073277 506.590225 86.212168 509.696046 87.040208 C 512.828665 87.844131 515.545924 88.246092 517.847823 88.246092 C 520.712468 88.246092 523.177831 87.401973 525.238553 85.716415 C 527.326072 84.00138 528.371172 81.940658 528.371172 79.531569 C 528.371172 77.765619 528.009407 76.532938 527.285876 75.836204 C 526.589143 75.112674 525.144762 74.485614 522.950053 73.949666 C 521.4226 73.38692 520.658873 72.34182 520.658873 70.817047 C 520.658873 69.611163 521.261815 68.434756 522.467699 67.282466 C 523.670904 66.132857 525.292148 65.114555 527.326072 64.23024 C 529.359997 63.348604 531.664576 62.638473 534.234449 62.102524 C 536.804322 61.539778 539.521581 61.258405 542.386225 61.258405 C 545.545642 61.258405 548.463881 61.807752 551.140944 62.906447 C 553.844804 64.002461 556.186899 65.543313 558.167229 67.523643 C 560.150239 69.503973 561.715208 71.835349 562.867498 74.512412 C 564.017107 77.189474 564.593252 80.067518 564.593252 83.146542 C 564.593252 87.321581 563.682139 91.217927 561.862594 94.832899 C 560.043049 98.445192 557.566967 101.577811 554.434348 104.228077 C 551.328526 106.851545 547.633161 108.901548 543.350933 110.372726 C 539.066024 111.846585 534.462227 112.580834 529.53418 112.580834 C 526.910712 112.580834 524.635611 112.473644 522.708876 112.261945 C 520.779461 112.047565 518.50436 111.444623 515.880892 110.453118 C 513.257424 109.464294 509.883628 107.990435 505.762184 106.036903 C 501.664858 104.053893 496.109752 101.256242 489.094186 97.643949 C 483.927642 102.247747 478.292144 105.75553 472.18769 108.164618 C 466.110034 110.573707 459.901071 111.779591 453.55544 111.779591 C 449.484911 111.779591 445.778827 111.230244 442.431829 110.131549 C 439.084831 109.035535 436.206787 107.534879 433.797699 105.634941 C 431.38861 103.708207 429.526189 101.403628 428.215795 98.726565 C 426.902721 96.022705 426.246184 93.077668 426.246184 89.891454 C 426.246184 86.91962 426.849126 84.175563 428.05501 81.659285 C 429.258215 79.143007 430.933054 76.961696 433.074168 75.112674 C 435.215282 73.239534 437.731561 71.781754 440.623003 70.736654 C 443.541242 69.691555 446.754254 69.171685 450.262037 69.171685 C 454.865834 69.171685 459.901071 69.879137 465.362386 71.2994 C 470.850499 72.716984 477.062142 74.860778 483.994636 77.725423 C 485.30771 75.635224 486.484116 73.413717 487.529216 71.058224 C 488.574316 68.70273 489.308565 66.585733 489.737324 64.712593 C 485.133526 64.176645 481.210383 63.362003 477.970574 62.263309 C 474.730766 61.164614 471.466839 59.680037 468.173436 57.806897 C 462.256564 54.299114 457.596492 49.786427 454.198578 44.271517 C 450.797985 38.72981 449.096349 32.826337 449.096349 26.561099 C 449.096349 22.27887 449.860075 18.248538 451.387529 14.47546 C 452.939099 10.699703 455.026619 7.392901 457.650087 4.555053 C 460.273555 1.690408 463.312383 -0.557896 466.766571 -2.192538 C 470.247556 -3.851299 473.902725 -4.682019 477.729398 -4.682019 C 485.30771 -4.682019 491.666739 -1.616394 496.806485 4.514857 C 498.679625 6.709566 500.126686 9.185648 501.142308 11.943103 C 502.187408 14.676441 502.709958 17.192719 502.709958 19.494618 C 502.709958 23.002401 501.396884 24.754952 498.773416 24.754952 C 498.344657 24.754952 497.982892 24.728155 497.68812 24.67456 C 497.422825 24.620965 497.128054 24.486978 496.806485 24.272599 C 496.484916 24.058219 496.015961 23.709853 495.39962 23.230179 C 494.810077 22.721028 494.022232 21.9707 493.030727 20.979195 C 491.824843 19.99037 490.125887 19.494618 487.931177 19.494618 C 485.30771 19.494618 483.163915 20.432528 481.505155 22.305668 C 479.873192 24.15201 479.05587 26.614694 479.05587 29.693718 C 479.05587 31.995617 479.565021 34.273398 480.580644 36.521702 C 481.625743 38.770006 483.032608 40.605629 484.798558 42.023213 C 486.216142 43.229097 487.690001 44.217922 489.214774 44.995048 C 490.769025 45.745376 493.084322 46.613612 496.163347 47.605117 Z M 515.559323 49.411263 C 518.531157 48.663615 521.382403 47.524725 524.113061 45.999951 C 526.843719 44.4457 529.306402 42.719946 531.503791 40.817329 C 533.6985 38.890594 535.451052 36.883467 536.764126 34.795948 C 538.07452 32.705748 538.731057 30.725419 538.731057 28.852279 C 538.731057 27.324825 538.262102 26.068026 537.326872 25.076521 C 536.415759 24.085017 535.250071 23.589264 533.832487 23.589264 C 530.753463 23.589264 527.955812 25.344496 525.439534 28.852279 C 524.769598 29.733914 524.23365 30.484242 523.831688 31.100583 C 523.456524 31.690126 523.003648 32.531565 522.467699 33.63026 C 521.931751 34.728954 521.248416 36.240329 520.420376 38.167064 C 519.589656 40.096478 518.410569 42.813737 516.885795 46.32152 C 516.671416 46.747599 516.443638 47.243352 516.202461 47.806098 C 515.988082 48.342046 515.773702 48.877995 515.559323 49.411263 Z M 473.272986 90.373808 C 471.959912 89.837859 470.475335 89.30459 468.813894 88.768642 C 467.181931 88.205896 465.563367 87.710144 463.955521 87.281385 C 462.377153 86.825829 460.903294 86.466743 459.539305 86.198769 C 458.172637 85.930795 457.103419 85.796807 456.326294 85.796807 C 454.798841 85.796807 453.434852 86.29256 452.228968 87.281385 C 451.025763 88.246092 450.422821 89.384983 450.422821 90.695377 C 450.422821 92.354137 451.186548 93.734205 452.711321 94.832899 C 454.265572 95.928914 456.138712 96.478261 458.333421 96.478261 C 460.74251 96.478261 463.098003 96.009306 465.402582 95.074076 C 467.704481 94.136166 470.327949 92.568517 473.272986 90.373808 Z M 577.903533 63.90867 C 578.436802 61.392392 578.704776 59.639841 578.704776 58.648336 C 578.704776 56.346437 577.447977 54.486696 574.931698 53.066432 C 582.61452 46.694004 589.908779 43.507791 596.817156 43.507791 C 599.655003 43.507791 601.916706 44.217922 603.604944 45.638186 C 605.317299 47.05577 606.174817 49.038779 606.174817 51.581855 C 606.174817 52.436693 606.174817 53.039635 606.174817 53.388001 C 606.174817 53.70957 606.067627 54.138329 605.853247 54.674278 L 600.271344 80.855362 C 600.056964 81.739677 599.882781 82.570397 599.748794 83.347523 C 599.641604 84.095171 599.588009 84.738309 599.588009 85.274258 C 599.588009 86.933018 600.030167 88.259491 600.914482 89.250996 C 601.796117 90.213023 603.002001 90.695377 604.526775 90.695377 C 605.196711 90.695377 605.799653 90.614985 606.335601 90.4542 C 606.898347 90.293415 608.436519 89.770866 610.952798 88.88923 L 611.595936 88.88923 C 613.254696 88.88923 614.085417 89.824461 614.085417 91.70028 C 614.085417 93.57342 613.201102 95.500155 611.435151 97.483165 C 609.695998 99.436697 607.471812 101.242843 604.767952 102.904284 C 602.090889 104.536247 599.159251 105.902916 595.973037 106.99893 C 592.81362 108.097625 589.804269 108.646972 586.939625 108.646972 C 582.547527 108.646972 578.892358 107.41429 575.974118 104.951607 C 573.082676 102.488924 571.638295 99.329507 571.638295 95.473358 C 571.638295 93.841395 571.799079 92.249627 572.120649 90.695377 Z M 599.588009 12.425457 C 603.444159 12.425457 606.523183 13.443759 608.825082 15.477684 C 611.126981 17.487491 612.27927 20.137756 612.27927 23.42848 C 612.27927 25.411489 611.783518 27.284629 610.792013 29.053259 C 609.803188 30.792412 608.423121 32.317186 606.65717 33.63026 C 604.915338 34.940654 602.921609 36.012551 600.673305 36.843271 C 598.425001 37.673991 596.093625 38.086671 593.684537 38.086671 C 590.176754 38.086671 587.379102 37.097846 585.291583 35.114837 C 583.204064 33.134507 582.158964 30.497641 582.158964 27.204237 C 582.158964 25.250705 582.627919 23.401682 583.565829 21.66253 C 584.501059 19.896579 585.787335 18.32893 587.419299 16.964941 C 589.080739 15.571475 590.94048 14.47546 593.001202 13.671537 C 595.091401 12.840817 597.286111 12.425457 599.588009 12.425457 Z M 641.879706 110.131549 C 641.10526 113.639332 639.952971 116.155611 638.428198 117.683064 C 637.436693 118.671889 636.11022 119.48921 634.45146 120.132349 C 632.816817 120.802284 631.345638 121.134572 630.032564 121.134572 L 622.644514 121.134572 C 620.664184 121.134572 618.962548 121.456141 617.544964 122.09928 C 616.124701 122.769215 614.372149 124.039413 612.28463 125.915233 L 626.259487 61.097621 L 622.644514 61.097621 C 619.779869 61.097621 618.346207 59.505854 618.346207 56.31964 C 618.346207 55.890881 618.399802 55.622907 618.506992 55.515717 L 619.351111 51.22009 C 619.779869 49.478257 620.382811 48.19466 621.159937 47.36394 C 621.934382 46.53322 623.086672 45.90616 624.611445 45.477401 C 625.71014 45.155832 626.634651 44.834263 627.382299 44.512694 C 628.159424 44.164328 628.815961 43.641778 629.35191 42.947724 C 629.911976 42.224194 630.407728 41.259487 630.836487 40.056282 C 631.292043 38.850398 631.854789 37.258631 632.524725 35.275622 C 633.942309 30.671824 636.043227 26.480707 638.827479 22.707629 C 641.638529 18.905074 644.878338 15.638468 648.546905 12.907811 C 652.215473 10.177153 656.189531 8.049437 660.474439 6.521984 C 664.756668 4.970413 669.202361 4.193288 673.806159 4.193288 C 679.937409 4.193288 684.782384 5.600153 688.343762 8.411203 C 691.90514 11.195455 693.684489 14.941735 693.684489 19.655402 C 693.684489 21.635732 693.322723 23.482075 692.601873 25.19711 C 691.90514 26.882668 690.927034 28.356526 689.670234 29.613326 C 688.410755 30.872805 686.952975 31.864309 685.291535 32.58516 C 683.659572 33.281893 681.90434 33.63026 680.0312 33.63026 C 676.978974 33.63026 674.409101 32.678951 672.321581 30.779014 C 670.231382 28.852279 669.188962 26.453909 669.188962 23.589264 C 669.188962 22.49325 669.322949 21.541941 669.590924 20.738018 C 669.858898 19.909978 670.378768 18.784486 671.155893 17.366902 C 669.282753 17.685792 667.715104 18.154747 666.458305 18.771087 C 665.198826 19.360631 664.102811 20.231547 663.164901 21.381157 C 662.253789 22.533446 661.490062 23.991226 660.876401 25.759856 C 660.286857 27.499009 659.657118 29.747313 658.987182 32.504768 L 656.176132 45.155832 L 669.028178 45.155832 C 672.535961 45.155832 674.288512 46.519821 674.288512 49.250479 C 674.288512 49.706035 674.181323 50.362572 673.966943 51.22009 L 673.122824 55.515717 C 672.241189 59.237879 670.04648 61.097621 666.538697 61.097621 L 652.724624 61.097621 Z M 703.875549 84.631119 C 703.875549 86.506939 704.666074 88.098706 706.244442 89.41178 C 707.849608 90.722174 709.80582 91.378711 712.107719 91.378711 C 713.659289 91.378711 715.119749 91.244724 716.483738 90.97675 C 717.850407 90.681978 719.348383 90.213023 720.983026 89.569885 C 722.641786 88.902629 724.47741 88.018314 726.484537 86.91962 C 728.518462 85.823605 730.967746 84.456936 733.832391 82.824973 C 735.145465 82.047848 736.458539 81.659285 737.768933 81.659285 C 738.867627 81.659285 739.762661 82.02105 740.459395 82.744581 C 741.182925 83.441314 741.54469 84.282753 741.54469 85.274258 C 741.54469 88.88923 738.586254 93.064269 732.669383 97.804734 C 723.030349 105.460758 713.005432 109.29011 702.589273 109.29011 C 698.414234 109.29011 694.625078 108.633573 691.224485 107.320499 C 687.823892 106.010105 684.865456 104.147684 682.349178 101.738596 C 679.8329 99.329507 677.879367 96.478261 676.485901 93.184858 C 675.121912 89.891454 674.438578 86.279161 674.438578 82.342619 C 674.438578 77.176076 675.617665 72.234631 677.973158 67.523643 C 680.328652 62.812656 683.501467 58.675133 687.491604 55.113756 C 691.505858 51.555057 696.152532 48.703811 701.426265 46.560017 C 706.699998 44.418903 712.241706 43.349686 718.051387 43.349686 C 724.289828 43.349686 729.402777 44.941453 733.392913 48.127667 C 737.407168 51.287083 739.416975 55.395128 739.416975 60.457162 C 739.416975 64.391024 737.956515 68.032794 735.038275 71.379793 C 732.146833 74.726791 727.902121 77.55124 722.306819 79.853139 C 719.683351 81.056343 716.67132 81.994253 713.273407 82.664188 C 709.872813 83.307327 706.740194 83.628896 703.875549 83.628896 Z M 705.520911 68.850116 C 714.302428 67.537042 718.694526 65.06096 718.694526 61.41919 C 718.694526 60.323175 718.359558 59.425461 717.689622 58.728728 C 717.046484 58.005198 716.231842 57.646112 715.240338 57.646112 C 713.152818 57.646112 711.223404 58.688532 709.457453 60.776051 C 707.7183 62.866251 706.405226 65.556712 705.520911 68.850116 Z M 705.520911 68.850116 " stroke="#472016" stroke-width="42.561787" stroke-opacity="1" stroke-miterlimit="4"/></g><g fill="#ffffff" fill-opacity="1"><g transform="translate(256.524786, 278.02109)"><g><path d="M 158.96875 -157.0625 C 167.601562 -168.570312 176.394531 -177.039062 185.34375 -182.46875 C 194.300781 -187.90625 203.972656 -190.625 214.359375 -190.625 C 219.953125 -190.625 224.46875 -189.34375 227.90625 -186.78125 C 231.34375 -184.226562 233.0625 -180.875 233.0625 -176.71875 C 233.0625 -174.476562 232.5 -172.359375 231.375 -170.359375 C 230.257812 -168.367188 228.820312 -166.613281 227.0625 -165.09375 C 225.3125 -163.570312 223.234375 -162.332031 220.828125 -161.375 C 218.429688 -160.414062 216.035156 -159.9375 213.640625 -159.9375 C 211.878906 -159.9375 210.757812 -160.210938 210.28125 -160.765625 C 209.800781 -161.328125 209.164062 -162.96875 208.375 -165.6875 C 208.207031 -166.320312 207.5625 -166.921875 206.4375 -167.484375 C 205.320312 -168.046875 204.207031 -168.328125 203.09375 -168.328125 C 195.257812 -168.328125 188.226562 -164.007812 182 -155.375 C 189.351562 -154.257812 196.066406 -152.179688 202.140625 -149.140625 C 208.210938 -146.109375 213.40625 -142.3125 217.71875 -137.75 C 222.039062 -133.195312 225.398438 -127.921875 227.796875 -121.921875 C 230.191406 -115.929688 231.390625 -109.5 231.390625 -102.625 C 231.390625 -94.789062 230.109375 -87.359375 227.546875 -80.328125 C 224.992188 -73.296875 221.519531 -67.140625 217.125 -61.859375 C 212.726562 -56.585938 207.648438 -52.390625 201.890625 -49.265625 C 196.140625 -46.148438 190.066406 -44.59375 183.671875 -44.59375 C 175.203125 -44.59375 168.25 -46.988281 162.8125 -51.78125 C 157.375 -56.582031 154.65625 -62.660156 154.65625 -70.015625 C 154.65625 -72.890625 155.015625 -75.722656 155.734375 -78.515625 C 156.453125 -81.316406 157.367188 -83.835938 158.484375 -86.078125 C 159.609375 -88.316406 160.929688 -90.113281 162.453125 -91.46875 C 163.972656 -92.832031 165.453125 -93.515625 166.890625 -93.515625 C 168.003906 -93.515625 168.757812 -93.273438 169.15625 -92.796875 C 169.5625 -92.316406 170.164062 -91.117188 170.96875 -89.203125 C 172.082031 -86.316406 174.078125 -84.875 176.953125 -84.875 C 178.867188 -84.875 180.742188 -85.515625 182.578125 -86.796875 C 184.421875 -88.078125 186.0625 -89.796875 187.5 -91.953125 C 188.945312 -94.109375 190.109375 -96.503906 190.984375 -99.140625 C 191.859375 -101.785156 192.296875 -104.546875 192.296875 -107.421875 C 192.296875 -114.140625 190.257812 -119.816406 186.1875 -124.453125 C 182.113281 -129.085938 176.476562 -132.125 169.28125 -133.5625 C 166.5625 -127.007812 164.441406 -121.734375 162.921875 -117.734375 C 161.410156 -113.734375 160.015625 -109.738281 158.734375 -105.75 C 158.253906 -104.46875 157.929688 -103.585938 157.765625 -103.109375 C 157.609375 -102.628906 157.488281 -102.226562 157.40625 -101.90625 C 157.332031 -101.582031 157.210938 -101.179688 157.046875 -100.703125 C 156.890625 -100.222656 156.65625 -99.347656 156.34375 -98.078125 C 155.382812 -94.554688 153.984375 -89.078125 152.140625 -81.640625 C 150.304688 -74.210938 148.03125 -64.742188 145.3125 -53.234375 C 138.59375 -26.054688 127.800781 -5.351562 112.9375 8.875 C 98.070312 23.101562 79.6875 30.21875 57.78125 30.21875 C 49.789062 30.21875 42.4375 29.015625 35.71875 26.609375 C 29.007812 24.210938 23.21875 20.9375 18.34375 16.78125 C 13.46875 12.625 9.671875 7.628906 6.953125 1.796875 C 4.234375 -4.035156 2.875 -10.390625 2.875 -17.265625 C 2.875 -26.378906 5.351562 -35.050781 10.3125 -43.28125 C 15.269531 -51.507812 21.90625 -58.101562 30.21875 -63.0625 C 35.8125 -66.257812 41.84375 -68.816406 48.3125 -70.734375 C 54.789062 -72.648438 60.742188 -73.609375 66.171875 -73.609375 C 70.171875 -73.609375 73.410156 -72.925781 75.890625 -71.5625 C 78.367188 -70.207031 79.609375 -68.410156 79.609375 -66.171875 C 79.609375 -65.210938 79.445312 -64.414062 79.125 -63.78125 C 78.800781 -63.144531 77.523438 -61.46875 75.296875 -58.75 C 74.335938 -57.3125 73.859375 -55.632812 73.859375 -53.71875 C 73.859375 -50.832031 75.132812 -48.3125 77.6875 -46.15625 C 80.25 -44 83.285156 -42.921875 86.796875 -42.921875 C 90.953125 -42.921875 95.269531 -44.117188 99.75 -46.515625 C 104.226562 -48.910156 108.066406 -52.1875 111.265625 -56.34375 C 113.816406 -59.539062 116.128906 -63.257812 118.203125 -67.5 C 120.285156 -71.738281 122.765625 -77.773438 125.640625 -85.609375 C 127.398438 -90.242188 129.039062 -94.640625 130.5625 -98.796875 C 132.082031 -102.953125 133.71875 -106.867188 135.46875 -110.546875 L 144.109375 -128.765625 C 144.429688 -129.566406 144.789062 -130.363281 145.1875 -131.15625 C 145.582031 -131.957031 145.941406 -132.757812 146.265625 -133.5625 C 141.628906 -132.757812 138.03125 -131.914062 135.46875 -131.03125 C 132.914062 -130.15625 130.359375 -128.921875 127.796875 -127.328125 C 125.085938 -125.566406 122.8125 -123.363281 120.96875 -120.71875 C 119.132812 -118.082031 118.21875 -115.726562 118.21875 -113.65625 C 118.21875 -111.894531 118.65625 -110.570312 119.53125 -109.6875 C 120.40625 -108.8125 122.441406 -107.738281 125.640625 -106.46875 C 126.921875 -105.988281 127.5625 -104.945312 127.5625 -103.34375 C 127.5625 -100.144531 125.484375 -95.988281 121.328125 -90.875 C 116.847656 -85.757812 111.890625 -81.800781 106.453125 -79 C 101.023438 -76.207031 95.515625 -74.8125 89.921875 -74.8125 C 81.441406 -74.8125 74.445312 -77.25 68.9375 -82.125 C 63.425781 -87 60.671875 -93.191406 60.671875 -100.703125 C 60.671875 -110.773438 64.664062 -120.003906 72.65625 -128.390625 C 80.644531 -136.785156 91.992188 -143.625 106.703125 -148.90625 C 122.210938 -154.34375 138.195312 -157.0625 154.65625 -157.0625 Z M 158.96875 -157.0625 "/></g></g></g><g fill="#ffffff" fill-opacity="1"><g transform="translate(474.47394, 278.02109)"><g><path d="M 18.703125 -63.296875 C 19.023438 -64.421875 19.222656 -65.660156 19.296875 -67.015625 C 19.378906 -68.378906 19.421875 -69.695312 19.421875 -70.96875 C 19.421875 -72.894531 19.0625 -74.375 18.34375 -75.40625 C 17.625 -76.445312 16.304688 -77.609375 14.390625 -78.890625 C 16.460938 -80.804688 18.859375 -82.601562 21.578125 -84.28125 C 24.296875 -85.957031 27.09375 -87.394531 29.96875 -88.59375 C 32.84375 -89.789062 35.679688 -90.75 38.484375 -91.46875 C 41.285156 -92.195312 43.882812 -92.5625 46.28125 -92.5625 C 50.4375 -92.5625 53.75 -91.5625 56.21875 -89.5625 C 58.695312 -87.5625 59.9375 -84.800781 59.9375 -81.28125 C 59.9375 -80.488281 59.859375 -79.453125 59.703125 -78.171875 C 59.546875 -76.890625 59.304688 -75.050781 58.984375 -72.65625 C 61.378906 -74.894531 63.253906 -76.648438 64.609375 -77.921875 C 65.972656 -79.203125 67.132812 -80.28125 68.09375 -81.15625 C 69.050781 -82.039062 69.890625 -82.722656 70.609375 -83.203125 C 71.328125 -83.679688 72.171875 -84.320312 73.140625 -85.125 C 75.847656 -87.195312 79 -88.832031 82.59375 -90.03125 C 86.195312 -91.238281 89.597656 -91.84375 92.796875 -91.84375 C 98.066406 -91.84375 102.378906 -90.28125 105.734375 -87.15625 C 109.097656 -84.039062 110.78125 -79.925781 110.78125 -74.8125 C 110.78125 -71.132812 110.097656 -67.613281 108.734375 -64.25 C 107.378906 -60.894531 105.539062 -57.9375 103.21875 -55.375 C 100.90625 -52.820312 98.269531 -50.785156 95.3125 -49.265625 C 92.351562 -47.753906 89.273438 -47 86.078125 -47 C 82.242188 -47 78.882812 -48.117188 76 -50.359375 C 73.125 -52.597656 71.6875 -55.234375 71.6875 -58.265625 C 71.6875 -58.742188 71.726562 -59.300781 71.8125 -59.9375 C 71.894531 -60.582031 72.015625 -61.304688 72.171875 -62.109375 C 68.972656 -60.347656 66.253906 -58.425781 64.015625 -56.34375 C 61.785156 -54.269531 59.789062 -51.910156 58.03125 -49.265625 C 56.269531 -46.628906 54.707031 -43.515625 53.34375 -39.921875 C 51.988281 -36.328125 50.671875 -32.050781 49.390625 -27.09375 L 47.234375 -17.265625 C 44.515625 -5.753906 38.363281 0 28.78125 0 L 19.421875 0 C 16.703125 0 14.101562 0.4375 11.625 1.3125 C 9.144531 2.195312 6.550781 3.757812 3.84375 6 Z M 18.703125 -63.296875 "/></g></g></g><g fill="#ffffff" fill-opacity="1"><g transform="translate(575.416297, 278.02109)"><g><path d="M 105.5 -38.359375 C 104.539062 -34.203125 104.0625 -31.40625 104.0625 -29.96875 C 104.0625 -28.207031 104.738281 -26.6875 106.09375 -25.40625 C 107.457031 -24.132812 109.179688 -23.5 111.265625 -23.5 C 113.015625 -23.5 114.609375 -23.816406 116.046875 -24.453125 C 119.410156 -25.410156 121.25 -25.890625 121.5625 -25.890625 C 122.6875 -25.890625 123.644531 -25.488281 124.4375 -24.6875 C 125.238281 -23.894531 125.640625 -22.859375 125.640625 -21.578125 C 125.640625 -19.023438 124.320312 -16.347656 121.6875 -13.546875 C 119.050781 -10.742188 115.734375 -8.144531 111.734375 -5.75 C 107.742188 -3.351562 103.390625 -1.359375 98.671875 0.234375 C 93.953125 1.835938 89.515625 2.640625 85.359375 2.640625 C 79.765625 2.640625 75.128906 0.800781 71.453125 -2.875 C 67.773438 -6.550781 65.9375 -11.1875 65.9375 -16.78125 C 65.9375 -17.582031 65.9375 -18.421875 65.9375 -19.296875 C 65.9375 -20.179688 66.015625 -21.179688 66.171875 -22.296875 C 64.097656 -19.742188 62.421875 -17.664062 61.140625 -16.0625 C 59.859375 -14.46875 58.738281 -13.109375 57.78125 -11.984375 C 56.820312 -10.867188 55.90625 -9.910156 55.03125 -9.109375 C 54.15625 -8.304688 53.234375 -7.425781 52.265625 -6.46875 C 49.234375 -3.4375 45.796875 -1.082031 41.953125 0.59375 C 38.117188 2.269531 34.523438 3.109375 31.171875 3.109375 C 23.972656 3.109375 18.097656 0.15625 13.546875 -5.75 C 8.992188 -11.664062 6.71875 -19.257812 6.71875 -28.53125 C 6.71875 -36.519531 8.234375 -44.351562 11.265625 -52.03125 C 14.304688 -59.707031 18.265625 -66.539062 23.140625 -72.53125 C 28.015625 -78.53125 33.609375 -83.328125 39.921875 -86.921875 C 46.234375 -90.515625 52.75 -92.3125 59.46875 -92.3125 C 68.894531 -92.3125 76.644531 -88.875 82.71875 -82 C 85.601562 -84.082031 88.082031 -85.757812 90.15625 -87.03125 C 92.238281 -88.3125 94.078125 -89.3125 95.671875 -90.03125 C 97.273438 -90.75 98.753906 -91.226562 100.109375 -91.46875 C 101.460938 -91.71875 102.941406 -91.84375 104.546875 -91.84375 C 107.742188 -91.84375 110.335938 -91 112.328125 -89.3125 C 114.328125 -87.632812 115.25 -85.519531 115.09375 -82.96875 C 115.09375 -81.363281 114.851562 -79.765625 114.375 -78.171875 Z M 65.453125 -67.375 C 61.941406 -67.375 58.863281 -65.816406 56.21875 -62.703125 C 53.582031 -59.585938 52.265625 -56.03125 52.265625 -52.03125 C 52.265625 -45.957031 54.90625 -42.921875 60.1875 -42.921875 C 61.78125 -42.921875 63.335938 -43.398438 64.859375 -44.359375 C 66.378906 -45.316406 67.738281 -46.59375 68.9375 -48.1875 C 70.132812 -49.789062 71.09375 -51.59375 71.8125 -53.59375 C 72.53125 -55.59375 72.890625 -57.707031 72.890625 -59.9375 C 72.890625 -64.894531 70.410156 -67.375 65.453125 -67.375 Z M 65.453125 -67.375 "/></g></g></g><g fill="#ffffff" fill-opacity="1"><g transform="translate(698.896824, 278.02109)"><g><path d="M 111.5 -86.5625 C 113.738281 -92.476562 115.773438 -97.753906 117.609375 -102.390625 C 119.453125 -107.023438 121.171875 -111.179688 122.765625 -114.859375 C 124.367188 -118.535156 125.925781 -121.929688 127.4375 -125.046875 C 128.957031 -128.160156 130.519531 -131.238281 132.125 -134.28125 C 138.832031 -146.101562 146.582031 -155.289062 155.375 -161.84375 C 164.164062 -168.40625 173.28125 -171.6875 182.71875 -171.6875 C 191.34375 -171.6875 198.332031 -169.007812 203.6875 -163.65625 C 209.050781 -158.300781 211.734375 -151.304688 211.734375 -142.671875 C 211.734375 -133.878906 209.613281 -125.164062 205.375 -116.53125 C 201.132812 -107.894531 195.378906 -99.898438 188.109375 -92.546875 C 180.835938 -85.203125 172.320312 -78.8125 162.5625 -73.375 C 152.8125 -67.9375 142.34375 -64.019531 131.15625 -61.625 C 128.914062 -55.707031 126.515625 -50.148438 123.953125 -44.953125 C 121.398438 -39.765625 119.25 -36.128906 117.5 -34.046875 C 122.132812 -31.972656 126.726562 -30.332031 131.28125 -29.125 C 135.832031 -27.925781 139.789062 -27.328125 143.15625 -27.328125 C 147.3125 -27.328125 150.90625 -28.566406 153.9375 -31.046875 C 156.976562 -33.523438 158.5 -36.523438 158.5 -40.046875 C 158.5 -42.597656 157.976562 -44.394531 156.9375 -45.4375 C 155.894531 -46.476562 153.773438 -47.398438 150.578125 -48.203125 C 148.335938 -48.992188 147.21875 -50.507812 147.21875 -52.75 C 147.21875 -54.507812 148.097656 -56.226562 149.859375 -57.90625 C 151.617188 -59.582031 153.976562 -61.0625 156.9375 -62.34375 C 159.894531 -63.625 163.25 -64.660156 167 -65.453125 C 170.757812 -66.253906 174.71875 -66.65625 178.875 -66.65625 C 183.507812 -66.65625 187.785156 -65.851562 191.703125 -64.25 C 195.617188 -62.65625 199.015625 -60.421875 201.890625 -57.546875 C 204.773438 -54.671875 207.054688 -51.273438 208.734375 -47.359375 C 210.410156 -43.441406 211.25 -39.242188 211.25 -34.765625 C 211.25 -28.691406 209.925781 -23.015625 207.28125 -17.734375 C 204.644531 -12.460938 201.050781 -7.910156 196.5 -4.078125 C 191.945312 -0.242188 186.550781 2.75 180.3125 4.90625 C 174.082031 7.070312 167.367188 8.15625 160.171875 8.15625 C 156.335938 8.15625 153.019531 7.992188 150.21875 7.671875 C 147.425781 7.347656 144.109375 6.46875 140.265625 5.03125 C 136.429688 3.59375 131.515625 1.4375 125.515625 -1.4375 C 119.523438 -4.3125 111.414062 -8.390625 101.1875 -13.671875 C 93.675781 -6.953125 85.484375 -1.835938 76.609375 1.671875 C 67.734375 5.191406 58.660156 6.953125 49.390625 6.953125 C 43.472656 6.953125 38.078125 6.148438 33.203125 4.546875 C 28.328125 2.953125 24.128906 0.757812 20.609375 -2.03125 C 17.097656 -4.832031 14.382812 -8.191406 12.46875 -12.109375 C 10.550781 -16.023438 9.59375 -20.300781 9.59375 -24.9375 C 9.59375 -29.25 10.46875 -33.242188 12.21875 -36.921875 C 13.976562 -40.597656 16.414062 -43.796875 19.53125 -46.515625 C 22.65625 -49.234375 26.332031 -51.351562 30.5625 -52.875 C 34.800781 -54.394531 39.476562 -55.15625 44.59375 -55.15625 C 51.3125 -55.15625 58.664062 -54.113281 66.65625 -52.03125 C 74.644531 -49.957031 83.675781 -46.84375 93.75 -42.6875 C 95.664062 -45.71875 97.382812 -48.953125 98.90625 -52.390625 C 100.425781 -55.828125 101.503906 -58.90625 102.140625 -61.625 C 95.429688 -62.425781 89.71875 -63.625 85 -65.21875 C 80.28125 -66.820312 75.523438 -68.976562 70.734375 -71.6875 C 62.097656 -76.8125 55.300781 -83.40625 50.34375 -91.46875 C 45.394531 -99.539062 42.921875 -108.132812 42.921875 -117.25 C 42.921875 -123.488281 44.039062 -129.363281 46.28125 -134.875 C 48.519531 -140.394531 51.554688 -145.234375 55.390625 -149.390625 C 59.222656 -153.546875 63.65625 -156.820312 68.6875 -159.21875 C 73.726562 -161.613281 79.046875 -162.8125 84.640625 -162.8125 C 95.671875 -162.8125 104.941406 -158.335938 112.453125 -149.390625 C 115.171875 -146.191406 117.289062 -142.59375 118.8125 -138.59375 C 120.332031 -134.59375 121.09375 -130.914062 121.09375 -127.5625 C 121.09375 -122.445312 119.171875 -119.890625 115.328125 -119.890625 C 114.691406 -119.890625 114.171875 -119.925781 113.765625 -120 C 113.367188 -120.082031 112.929688 -120.285156 112.453125 -120.609375 C 111.972656 -120.929688 111.289062 -121.453125 110.40625 -122.171875 C 109.53125 -122.890625 108.375 -123.96875 106.9375 -125.40625 C 105.1875 -126.84375 102.710938 -127.5625 99.515625 -127.5625 C 95.671875 -127.5625 92.550781 -126.203125 90.15625 -123.484375 C 87.757812 -120.765625 86.5625 -117.171875 86.5625 -112.703125 C 86.5625 -109.335938 87.316406 -106.015625 88.828125 -102.734375 C 90.347656 -99.460938 92.390625 -96.789062 94.953125 -94.71875 C 97.035156 -92.957031 99.191406 -91.515625 101.421875 -90.390625 C 103.660156 -89.273438 107.019531 -88 111.5 -86.5625 Z M 139.796875 -83.921875 C 144.109375 -85.046875 148.257812 -86.722656 152.25 -88.953125 C 156.25 -91.191406 159.847656 -93.707031 163.046875 -96.5 C 166.242188 -99.300781 168.800781 -102.21875 170.71875 -105.25 C 172.632812 -108.289062 173.59375 -111.171875 173.59375 -113.890625 C 173.59375 -116.128906 172.914062 -117.96875 171.5625 -119.40625 C 170.207031 -120.84375 168.488281 -121.5625 166.40625 -121.5625 C 161.925781 -121.5625 157.847656 -119.003906 154.171875 -113.890625 C 153.210938 -112.617188 152.453125 -111.539062 151.890625 -110.65625 C 151.335938 -109.78125 150.660156 -108.539062 149.859375 -106.9375 C 149.066406 -105.34375 148.066406 -103.144531 146.859375 -100.34375 C 145.660156 -97.550781 143.941406 -93.597656 141.703125 -88.484375 C 141.390625 -87.835938 141.070312 -87.113281 140.75 -86.3125 C 140.425781 -85.519531 140.109375 -84.722656 139.796875 -83.921875 Z M 78.171875 -24.21875 C 76.253906 -25.019531 74.09375 -25.816406 71.6875 -26.609375 C 69.289062 -27.410156 66.929688 -28.128906 64.609375 -28.765625 C 62.296875 -29.410156 60.140625 -29.929688 58.140625 -30.328125 C 56.148438 -30.734375 54.59375 -30.9375 53.46875 -30.9375 C 51.226562 -30.9375 49.226562 -30.210938 47.46875 -28.765625 C 45.71875 -27.328125 44.84375 -25.648438 44.84375 -23.734375 C 44.84375 -21.335938 45.957031 -19.335938 48.1875 -17.734375 C 50.425781 -16.140625 53.144531 -15.34375 56.34375 -15.34375 C 59.863281 -15.34375 63.300781 -16.019531 66.65625 -17.375 C 70.007812 -18.738281 73.847656 -21.019531 78.171875 -24.21875 Z M 78.171875 -24.21875 "/></g></g></g><g fill="#ffffff" fill-opacity="1"><g transform="translate(912.530164, 278.02109)"><g><path d="M 17.03125 -62.828125 C 17.820312 -66.503906 18.21875 -69.0625 18.21875 -70.5 C 18.21875 -73.851562 16.378906 -76.566406 12.703125 -78.640625 C 23.898438 -87.921875 34.53125 -92.5625 44.59375 -92.5625 C 48.75 -92.5625 52.066406 -91.519531 54.546875 -89.4375 C 57.023438 -87.363281 58.265625 -84.488281 58.265625 -80.8125 C 58.265625 -79.53125 58.265625 -78.648438 58.265625 -78.171875 C 58.265625 -77.691406 58.101562 -77.050781 57.78125 -76.25 L 49.640625 -38.125 C 49.316406 -36.84375 49.070312 -35.640625 48.90625 -34.515625 C 48.75 -33.398438 48.671875 -32.445312 48.671875 -31.65625 C 48.671875 -29.25 49.3125 -27.328125 50.59375 -25.890625 C 51.875 -24.453125 53.632812 -23.734375 55.875 -23.734375 C 56.832031 -23.734375 57.707031 -23.851562 58.5 -24.09375 C 59.300781 -24.332031 61.539062 -25.09375 65.21875 -26.375 L 66.171875 -26.375 C 68.578125 -26.375 69.78125 -25.015625 69.78125 -22.296875 C 69.78125 -19.578125 68.5 -16.78125 65.9375 -13.90625 C 63.382812 -11.03125 60.148438 -8.390625 56.234375 -5.984375 C 52.316406 -3.585938 48.039062 -1.59375 43.40625 0 C 38.769531 1.59375 34.375 2.390625 30.21875 2.390625 C 23.820312 2.390625 18.503906 0.59375 14.265625 -3 C 10.023438 -6.59375 7.90625 -11.1875 7.90625 -16.78125 C 7.90625 -19.175781 8.144531 -21.492188 8.625 -23.734375 Z M 48.671875 -137.875 C 54.265625 -137.875 58.738281 -136.394531 62.09375 -133.4375 C 65.457031 -130.476562 67.140625 -126.601562 67.140625 -121.8125 C 67.140625 -118.9375 66.421875 -116.21875 64.984375 -113.65625 C 63.546875 -111.09375 61.546875 -108.851562 58.984375 -106.9375 C 56.429688 -105.019531 53.515625 -103.460938 50.234375 -102.265625 C 46.953125 -101.066406 43.554688 -100.46875 40.046875 -100.46875 C 34.929688 -100.46875 30.851562 -101.90625 27.8125 -104.78125 C 24.78125 -107.65625 23.265625 -111.492188 23.265625 -116.296875 C 23.265625 -119.171875 23.941406 -121.882812 25.296875 -124.4375 C 26.648438 -127 28.523438 -129.28125 30.921875 -131.28125 C 33.328125 -133.28125 36.046875 -134.878906 39.078125 -136.078125 C 42.117188 -137.273438 45.316406 -137.875 48.671875 -137.875 Z M 48.671875 -137.875 "/></g></g></g><g fill="#ffffff" fill-opacity="1"><g transform="translate(980.384517, 278.02109)"><g><path d="M 42.4375 4.5625 C 41.320312 9.675781 39.644531 13.347656 37.40625 15.578125 C 35.96875 17.023438 34.046875 18.226562 31.640625 19.1875 C 29.242188 20.144531 27.085938 20.625 25.171875 20.625 L 14.390625 20.625 C 11.515625 20.625 9.035156 21.101562 6.953125 22.0625 C 4.878906 23.019531 2.320312 24.859375 -0.71875 27.578125 L 19.65625 -66.90625 L 14.390625 -66.90625 C 10.234375 -66.90625 8.15625 -69.222656 8.15625 -73.859375 C 8.15625 -74.492188 8.234375 -74.890625 8.390625 -75.046875 L 9.59375 -81.28125 C 10.226562 -83.84375 11.101562 -85.722656 12.21875 -86.921875 C 13.34375 -88.117188 15.023438 -89.035156 17.265625 -89.671875 C 18.859375 -90.148438 20.210938 -90.628906 21.328125 -91.109375 C 22.453125 -91.597656 23.414062 -92.359375 24.21875 -93.390625 C 25.019531 -94.429688 25.738281 -95.832031 26.375 -97.59375 C 27.007812 -99.351562 27.8125 -101.671875 28.78125 -104.546875 C 30.851562 -111.253906 33.925781 -117.363281 38 -122.875 C 42.082031 -128.394531 46.800781 -133.15625 52.15625 -137.15625 C 57.507812 -141.15625 63.300781 -144.269531 69.53125 -146.5 C 75.769531 -148.738281 82.242188 -149.859375 88.953125 -149.859375 C 97.910156 -149.859375 104.984375 -147.820312 110.171875 -143.75 C 115.367188 -139.675781 117.96875 -134.203125 117.96875 -127.328125 C 117.96875 -124.441406 117.445312 -121.757812 116.40625 -119.28125 C 115.375 -116.8125 113.9375 -114.65625 112.09375 -112.8125 C 110.257812 -110.976562 108.140625 -109.539062 105.734375 -108.5 C 103.335938 -107.457031 100.785156 -106.9375 98.078125 -106.9375 C 93.597656 -106.9375 89.835938 -108.332031 86.796875 -111.125 C 83.765625 -113.925781 82.25 -117.40625 82.25 -121.5625 C 82.25 -123.164062 82.445312 -124.566406 82.84375 -125.765625 C 83.238281 -126.960938 84 -128.601562 85.125 -130.6875 C 82.40625 -130.207031 80.125 -129.523438 78.28125 -128.640625 C 76.445312 -127.765625 74.847656 -126.484375 73.484375 -124.796875 C 72.128906 -123.117188 71.007812 -121 70.125 -118.4375 C 69.25 -115.882812 68.332031 -112.613281 67.375 -108.625 L 63.296875 -90.15625 L 82 -90.15625 C 87.113281 -90.15625 89.671875 -88.15625 89.671875 -84.15625 C 89.671875 -83.519531 89.515625 -82.5625 89.203125 -81.28125 L 88 -75.046875 C 86.71875 -69.617188 83.519531 -66.90625 78.40625 -66.90625 L 58.265625 -66.90625 Z M 42.4375 4.5625 "/></g></g></g><g fill="#ffffff" fill-opacity="1"><g transform="translate(1064.782883, 278.02109)"><g><path d="M 48.4375 -32.609375 C 48.4375 -29.890625 49.59375 -27.570312 51.90625 -25.65625 C 54.226562 -23.738281 57.066406 -22.78125 60.421875 -22.78125 C 62.660156 -22.78125 64.78125 -22.976562 66.78125 -23.375 C 68.78125 -23.78125 70.976562 -24.460938 73.375 -25.421875 C 75.769531 -26.378906 78.445312 -27.65625 81.40625 -29.25 C 84.363281 -30.851562 87.921875 -32.851562 92.078125 -35.25 C 93.992188 -36.363281 95.910156 -36.921875 97.828125 -36.921875 C 99.429688 -36.921875 100.75 -36.398438 101.78125 -35.359375 C 102.820312 -34.328125 103.34375 -33.09375 103.34375 -31.65625 C 103.34375 -26.375 99.023438 -20.296875 90.390625 -13.421875 C 76.328125 -2.234375 61.703125 3.359375 46.515625 3.359375 C 40.441406 3.359375 34.925781 2.398438 29.96875 0.484375 C 25.019531 -1.429688 20.707031 -4.148438 17.03125 -7.671875 C 13.351562 -11.191406 10.515625 -15.347656 8.515625 -20.140625 C 6.515625 -24.929688 5.515625 -30.207031 5.515625 -35.96875 C 5.515625 -43.476562 7.234375 -50.671875 10.671875 -57.546875 C 14.109375 -64.421875 18.742188 -70.453125 24.578125 -75.640625 C 30.410156 -80.835938 37.160156 -84.992188 44.828125 -88.109375 C 52.503906 -91.234375 60.582031 -92.796875 69.0625 -92.796875 C 78.164062 -92.796875 85.632812 -90.476562 91.46875 -85.84375 C 97.3125 -81.207031 100.234375 -75.210938 100.234375 -67.859375 C 100.234375 -62.097656 98.113281 -56.78125 93.875 -51.90625 C 89.632812 -47.03125 83.441406 -42.914062 75.296875 -39.5625 C 71.453125 -37.800781 67.050781 -36.441406 62.09375 -35.484375 C 57.144531 -34.523438 52.59375 -34.046875 48.4375 -34.046875 Z M 50.828125 -55.625 C 63.617188 -57.539062 70.015625 -61.140625 70.015625 -66.421875 C 70.015625 -68.015625 69.535156 -69.332031 68.578125 -70.375 C 67.617188 -71.414062 66.421875 -71.9375 64.984375 -71.9375 C 61.941406 -71.9375 59.140625 -70.414062 56.578125 -67.375 C 54.023438 -64.34375 52.109375 -60.425781 50.828125 -55.625 Z M 50.828125 -55.625 "/></g></g></g><path stroke-linecap="butt" transform="matrix(3.067654, 0, 0, 3.067654, 369.068134, 343.833615)" fill="none" stroke-linejoin="miter" d="M 35.987336 11.999695 L 33.165555 11.999695 L 33.692729 10.535323 L 30.971543 10.535323 L 30.297932 9.864258 L 29.255045 11.999695 L 26.410343 11.999695 L 29.289426 6.107825 C 29.369648 5.924461 29.475337 5.755103 29.606494 5.598479 C 29.738924 5.441854 29.893002 5.311971 30.068726 5.208828 L 31.775038 4.368406 C 31.973683 4.248709 32.188882 4.188861 32.421909 4.188861 L 36.010257 4.188861 C 36.122313 4.188861 36.224183 4.202868 36.315865 4.230882 C 36.407547 4.257623 36.481403 4.303464 36.538704 4.368406 L 37.847725 5.580651 C 37.958508 5.685068 38.025997 5.814951 38.050191 5.970302 C 38.073111 6.126926 38.054011 6.292464 37.991616 6.468188 Z M 31.917655 6.659193 L 30.836567 8.821371 L 34.317952 8.821371 L 35.099799 6.659193 C 35.162194 6.498749 35.153281 6.361225 35.073059 6.246622 C 34.992837 6.130746 34.86932 6.073444 34.701236 6.073444 L 32.759351 6.073444 C 32.591266 6.073444 32.430822 6.130746 32.278018 6.246622 C 32.126487 6.361225 32.005517 6.498749 31.917655 6.659193 Z M 50.073322 9.526816 C 50.042762 9.67962 50.055495 9.81587 50.11407 9.938113 C 50.175192 10.056537 50.280881 10.116385 50.433685 10.116385 L 51.382344 10.116385 C 51.550428 10.116385 51.709599 10.059083 51.859856 9.943207 C 52.012661 9.826057 52.128537 9.68726 52.208759 9.526816 L 55.258473 4.188861 L 58.29418 4.188861 L 54.852269 10.080731 C 54.74658 10.256455 54.605236 10.42836 54.429511 10.596444 C 54.253787 10.764529 54.074242 10.893139 53.890877 10.981001 L 52.36793 11.821423 C 52.26224 11.883818 52.155278 11.92966 52.048315 11.958947 C 51.940079 11.986961 51.830569 11.999695 51.717239 11.999695 L 48.778308 11.999695 C 48.675165 11.999695 48.577116 11.986961 48.485434 11.958947 C 48.393751 11.92966 48.316076 11.883818 48.251134 11.821423 L 47.325396 10.981001 C 47.222254 10.893139 47.142032 10.764529 47.08473 10.596444 C 47.029975 10.42836 47.014695 10.256455 47.037615 10.080731 L 47.867851 4.188861 L 50.902284 4.188861 Z M 61.403742 11.003922 C 61.32352 11.202567 61.19109 11.355371 61.005179 11.46106 L 60.129102 11.902919 C 60.025959 11.967861 59.911356 11.999695 59.78402 11.999695 L 58.222872 11.999695 L 60.694477 5.182088 C 60.774699 4.975802 60.910949 4.824271 61.101954 4.728769 L 61.966571 4.28309 C 62.069713 4.220695 62.18559 4.188861 62.315473 4.188861 L 63.874075 4.188861 Z M 67.138988 4.188861 L 73.271523 4.188861 C 74.175614 4.188861 74.822484 4.373499 75.213408 4.740229 C 75.605605 5.106959 75.662907 5.679974 75.384039 6.456728 L 74.062284 10.080731 C 74.004983 10.248815 73.906934 10.410533 73.766863 10.567157 C 73.628066 10.721234 73.466349 10.851118 73.282984 10.956807 L 71.589405 11.821423 C 71.486263 11.883818 71.378027 11.92966 71.264697 11.958947 C 71.152641 11.986961 71.041858 11.999695 70.929801 11.999695 L 64.305746 11.999695 Z M 72.093659 6.073444 L 69.275698 6.073444 L 67.810052 10.116385 L 70.620373 10.116385 C 70.787184 10.116385 70.948902 10.059083 71.102979 9.943207 C 71.259603 9.826057 71.365293 9.68726 71.422594 9.526816 L 72.465482 6.659193 C 72.530424 6.491109 72.524057 6.351038 72.447655 6.240256 C 72.371253 6.129473 72.254103 6.073444 72.093659 6.073444 Z M 85.619364 11.999695 L 82.798856 11.999695 L 83.32603 10.535323 L 80.603571 10.535323 L 79.92996 9.864258 L 78.887072 11.999695 L 76.04237 11.999695 L 78.922726 6.107825 C 79.002948 5.924461 79.107365 5.755103 79.238521 5.598479 C 79.370951 5.441854 79.526302 5.311971 79.702027 5.208828 L 81.407065 4.368406 C 81.605711 4.248709 81.822183 4.188861 82.053936 4.188861 L 85.643558 4.188861 C 85.754341 4.188861 85.85621 4.202868 85.947892 4.230882 C 86.039575 4.257623 86.11343 4.303464 86.170732 4.368406 L 87.479753 5.580651 C 87.591809 5.685068 87.659298 5.814951 87.682218 5.970302 C 87.705139 6.126926 87.686038 6.292464 87.623643 6.468188 Z M 81.549683 6.659193 L 80.468594 8.821371 L 83.949979 8.821371 L 84.731827 6.659193 C 84.794222 6.498749 84.785308 6.361225 84.705086 6.246622 C 84.624864 6.130746 84.501347 6.073444 84.333263 6.073444 L 82.391378 6.073444 C 82.223294 6.073444 82.062849 6.130746 81.910045 6.246622 C 81.758515 6.361225 81.637545 6.498749 81.549683 6.659193 Z M 98.375955 11.003922 C 98.295733 11.212754 98.158209 11.365558 97.96593 11.46106 L 97.089854 11.902919 C 96.985438 11.967861 96.874655 11.999695 96.754958 11.999695 L 95.17089 11.999695 L 98.004131 4.188861 L 106.236449 4.188861 L 105.550105 6.073444 L 100.162489 6.073444 L 99.755011 7.213108 L 104.639647 7.213108 L 103.991503 8.976721 L 99.108141 8.976721 Z M 109.595592 11.003922 C 109.516643 11.202567 109.382939 11.355371 109.198301 11.46106 L 108.322225 11.902919 C 108.217809 11.967861 108.103206 11.999695 107.975869 11.999695 L 106.414721 11.999695 L 108.8876 5.182088 C 108.967822 4.975802 109.102799 4.824271 109.293804 4.728769 L 110.15842 4.28309 C 110.261563 4.220695 110.378712 4.188861 110.507323 4.188861 L 112.065924 4.188861 Z M 123.731239 4.188861 L 123.044894 6.073444 L 118.138611 6.073444 C 117.985807 6.073444 117.829183 6.129473 117.670012 6.240256 C 117.510841 6.351038 117.400058 6.491109 117.335117 6.659193 L 116.289682 9.526816 C 116.234927 9.68726 116.247661 9.826057 116.327883 9.943207 C 116.408105 10.059083 116.531622 10.116385 116.699706 10.116385 L 121.583069 10.116385 L 120.897998 11.999695 L 114.936093 11.999695 C 114.687787 11.999695 114.506968 11.939846 114.393639 11.821423 L 113.327831 10.956807 C 113.222141 10.851118 113.159746 10.721234 113.140646 10.567157 C 113.120272 10.410533 113.139372 10.248815 113.1954 10.080731 L 114.514609 6.456728 C 114.796023 5.679974 115.264622 5.106959 115.922953 4.740229 C 116.58383 4.373499 117.361857 4.188861 118.258308 4.188861 Z M 133.151609 11.999695 L 130.331101 11.999695 L 130.858275 10.535323 L 128.135816 10.535323 L 127.462205 9.864258 L 126.419317 11.999695 L 123.574615 11.999695 L 126.454971 6.107825 C 126.535194 5.924461 126.63961 5.755103 126.770766 5.598479 C 126.903197 5.441854 127.058547 5.311971 127.234272 5.208828 L 128.939311 4.368406 C 129.137956 4.248709 129.354428 4.188861 129.586181 4.188861 L 133.175803 4.188861 C 133.286586 4.188861 133.388455 4.202868 133.480137 4.230882 C 133.57182 4.257623 133.645675 4.303464 133.702977 4.368406 L 135.011998 5.580651 C 135.124054 5.685068 135.191543 5.814951 135.214463 5.970302 C 135.237384 6.126926 135.218283 6.292464 135.155888 6.468188 Z M 129.081928 6.659193 L 128.002112 8.821371 L 131.482224 8.821371 L 132.264072 6.659193 C 132.326467 6.498749 132.317553 6.361225 132.237331 6.246622 C 132.157109 6.130746 132.033592 6.073444 131.865508 6.073444 L 129.923623 6.073444 C 129.755539 6.073444 129.595095 6.130746 129.44229 6.246622 C 129.29076 6.361225 129.16979 6.498749 129.081928 6.659193 Z M 148.295763 11.999695 L 147.322911 11.999695 L 147.082244 7.476695 L 146.53215 9.217388 L 145.523643 11.999695 L 142.703135 11.999695 L 145.536377 4.188861 L 148.606465 4.188861 L 148.811477 9.240308 L 152.674872 4.188861 L 155.746234 4.188861 L 152.915539 11.999695 L 150.093757 11.999695 L 151.102264 9.217388 L 151.82299 7.476695 Z M 165.251919 11.999695 L 162.430137 11.999695 L 162.958585 10.535323 L 160.236126 10.535323 L 159.562515 9.864258 L 158.519627 11.999695 L 155.674925 11.999695 L 158.555281 6.107825 C 158.635503 5.924461 158.739919 5.755103 158.871076 5.598479 C 159.003506 5.441854 159.158857 5.311971 159.334582 5.208828 L 161.03962 4.368406 C 161.238266 4.248709 161.454738 4.188861 161.686491 4.188861 L 165.276113 4.188861 C 165.386895 4.188861 165.488765 4.202868 165.580447 4.230882 C 165.67213 4.257623 165.745985 4.303464 165.803286 4.368406 L 167.112308 5.580651 C 167.224364 5.685068 167.290579 5.814951 167.314773 5.970302 C 167.337694 6.126926 167.318593 6.292464 167.256198 6.468188 Z M 161.182237 6.659193 L 160.101149 8.821371 L 163.582534 8.821371 L 164.364382 6.659193 C 164.426777 6.498749 164.417863 6.361225 164.337641 6.246622 C 164.257419 6.130746 164.133902 6.073444 163.965818 6.073444 L 162.023933 6.073444 C 161.855849 6.073444 161.695404 6.130746 161.5426 6.246622 C 161.39107 6.361225 161.2701 6.498749 161.182237 6.659193 Z M 171.696429 11.003922 C 171.616207 11.202567 171.483777 11.355371 171.297865 11.46106 L 170.421789 11.902919 C 170.318646 11.967861 170.20277 11.999695 170.076706 11.999695 L 168.514285 11.999695 L 170.987164 5.182088 C 171.067386 4.975802 171.203636 4.824271 171.394641 4.728769 L 172.259257 4.28309 C 172.3624 4.220695 172.478277 4.188861 172.60816 4.188861 L 174.166761 4.188861 Z M 185.026035 7.139253 L 184.091384 9.720368 C 184.026442 9.896092 183.928393 10.056537 183.794689 10.2017 C 183.664806 10.344318 183.510729 10.467834 183.335004 10.573524 L 181.114252 11.821423 C 181.011109 11.883818 180.904146 11.92966 180.794637 11.958947 C 180.687674 11.986961 180.578164 11.999695 180.467381 11.999695 L 174.552591 11.999695 L 175.235116 10.116385 L 180.539963 10.116385 C 180.708048 10.116385 180.867219 10.059083 181.017476 9.943207 C 181.17028 9.826057 181.274696 9.68726 181.331998 9.526816 L 181.521729 9.023836 L 175.62986 9.023836 L 176.555598 6.468188 C 176.698215 6.091272 176.961802 5.79585 177.347632 5.580651 L 179.54419 4.368406 C 179.656247 4.303464 179.764483 4.257623 179.872719 4.230882 C 179.982229 4.202868 180.087918 4.188861 180.192334 4.188861 L 186.095664 4.188861 L 185.411866 6.073444 L 180.118479 6.073444 C 179.950394 6.073444 179.788677 6.129473 179.632053 6.240256 C 179.475428 6.351038 179.365919 6.491109 179.303524 6.659193 L 179.134166 7.139253 Z M 197.111562 9.647786 L 196.942204 8.255996 L 195.588615 11.999695 L 192.766834 11.999695 L 195.600075 4.188861 L 201.647295 4.188861 C 202.551386 4.188861 203.198257 4.373499 203.58918 4.740229 C 203.981377 5.106959 204.038679 5.679974 203.759811 6.456728 L 203.289939 7.728822 C 203.235184 7.896906 203.139682 8.058624 203.003431 8.215248 C 202.867181 8.370599 202.706737 8.500482 202.523372 8.604898 L 200.818334 9.468241 C 200.713917 9.533183 200.606955 9.579024 200.496172 9.607038 C 200.384115 9.633779 200.272059 9.647786 200.158729 9.647786 Z M 197.735512 6.073444 L 197.123022 7.763203 L 199.848028 7.763203 C 200.016112 7.763203 200.180377 7.705901 200.340821 7.591298 C 200.499992 7.474148 200.608228 7.335351 200.662983 7.174907 L 200.843801 6.659193 C 200.906196 6.491109 200.899829 6.351038 200.823427 6.240256 C 200.749572 6.129473 200.632422 6.073444 200.471978 6.073444 Z M 207.49205 11.999695 L 204.671542 11.999695 L 207.504784 4.188861 L 213.550731 4.188861 C 214.454821 4.188861 215.102965 4.373499 215.493889 4.740229 C 215.886086 5.106959 215.942114 5.679974 215.663247 6.456728 L 215.244309 7.584931 C 215.211201 7.672793 215.167907 7.753016 215.115699 7.825598 C 215.064764 7.895633 214.994729 7.975855 214.906867 8.064991 L 213.935287 8.771709 C 213.647507 8.988182 213.376279 9.096418 213.120333 9.096418 L 212.363953 9.096418 L 213.969668 11.927113 L 213.946748 11.999695 L 210.466636 11.999695 L 208.834179 8.30311 Z M 209.64022 6.073444 L 209.003537 7.837058 L 211.714535 7.837058 C 211.88262 7.837058 212.045611 7.77721 212.206055 7.658786 C 212.366499 7.536543 212.474735 7.400293 212.532037 7.247489 L 212.737049 6.659193 C 212.799444 6.491109 212.791804 6.351038 212.716675 6.240256 C 212.640273 6.129473 212.523123 6.073444 212.363953 6.073444 Z M 225.696106 11.999695 L 222.875598 11.999695 L 223.402771 10.535323 L 220.680313 10.535323 L 220.006702 9.864258 L 218.963814 11.999695 L 216.119112 11.999695 L 218.999468 6.107825 C 219.07969 5.924461 219.184106 5.755103 219.315263 5.598479 C 219.448967 5.441854 219.603044 5.311971 219.778769 5.208828 L 221.483807 4.368406 C 221.682453 4.248709 221.898925 4.188861 222.130678 4.188861 L 225.720299 4.188861 C 225.831082 4.188861 225.932952 4.202868 226.024634 4.230882 C 226.116317 4.257623 226.190172 4.303464 226.247473 4.368406 L 227.556495 5.580651 C 227.668551 5.685068 227.73604 5.814951 227.75896 5.970302 C 227.781881 6.126926 227.76278 6.292464 227.700385 6.468188 Z M 221.627698 6.659193 L 220.546609 8.821371 L 224.026721 8.821371 L 224.808569 6.659193 C 224.870964 6.498749 224.86205 6.361225 224.781828 6.246622 C 224.702879 6.130746 224.578089 6.073444 224.410005 6.073444 L 222.46812 6.073444 C 222.300036 6.073444 222.139591 6.130746 221.988061 6.246622 C 221.835257 6.361225 221.71556 6.498749 221.627698 6.659193 Z M 230.602389 6.073444 L 231.288734 4.188861 L 240.563939 4.188861 L 239.877594 6.073444 L 236.652156 6.073444 L 234.863075 11.003922 C 234.782853 11.212754 234.646602 11.365558 234.455597 11.46106 L 233.590981 11.902919 C 233.487838 11.967861 233.371962 11.999695 233.242079 11.999695 L 231.683477 11.999695 L 233.831648 6.073444 Z M 243.924355 11.003922 C 243.845406 11.202567 243.711702 11.355371 243.527064 11.46106 L 242.650988 11.902919 C 242.546572 11.967861 242.431969 11.999695 242.304632 11.999695 L 240.743484 11.999695 L 243.216363 5.182088 C 243.296585 4.975802 243.431562 4.824271 243.622567 4.728769 L 244.487183 4.28309 C 244.591599 4.220695 244.707476 4.188861 244.836086 4.188861 L 246.394687 4.188861 Z M 258.060002 4.188861 L 257.373658 6.073444 L 252.467374 6.073444 C 252.31457 6.073444 252.157946 6.129473 251.998775 6.240256 C 251.839604 6.351038 251.728821 6.491109 251.66388 6.659193 L 250.618445 9.526816 C 250.563691 9.68726 250.576424 9.826057 250.656646 9.943207 C 250.736868 10.059083 250.860385 10.116385 251.02847 10.116385 L 255.911832 10.116385 L 255.226761 11.999695 L 249.264856 11.999695 C 249.01655 11.999695 248.835731 11.939846 248.722402 11.821423 L 247.656594 10.956807 C 247.550904 10.851118 247.488509 10.721234 247.469409 10.567157 C 247.449035 10.410533 247.468135 10.248815 247.524163 10.080731 L 248.843372 6.456728 C 249.124786 5.679974 249.593385 5.106959 250.251716 4.740229 C 250.912593 4.373499 251.69062 4.188861 252.587071 4.188861 Z M 267.480372 11.999695 L 264.659864 11.999695 L 265.187038 10.535323 L 262.464579 10.535323 L 261.790968 9.864258 L 260.74808 11.999695 L 257.903378 11.999695 L 260.783734 6.107825 C 260.863957 5.924461 260.968373 5.755103 261.09953 5.598479 C 261.233233 5.441854 261.38731 5.311971 261.563035 5.208828 L 263.268074 4.368406 C 263.466719 4.248709 263.683191 4.188861 263.914944 4.188861 L 267.504566 4.188861 C 267.615349 4.188861 267.717218 4.202868 267.8089 4.230882 C 267.900583 4.257623 267.974438 4.303464 268.03174 4.368406 L 269.340761 5.580651 C 269.452817 5.685068 269.520306 5.814951 269.543226 5.970302 C 269.566147 6.126926 269.547046 6.292464 269.484652 6.468188 Z M 263.410691 6.659193 L 262.330875 8.821371 L 265.810988 8.821371 L 266.592835 6.659193 C 266.65523 6.498749 266.646316 6.361225 266.566094 6.246622 C 266.487145 6.130746 266.362356 6.073444 266.194271 6.073444 L 264.252386 6.073444 C 264.084302 6.073444 263.923858 6.130746 263.771054 6.246622 C 263.619523 6.361225 263.499826 6.498749 263.410691 6.659193 Z M 263.410691 6.659193 " stroke="#9f5e5e" stroke-width="3.15" stroke-opacity="1" stroke-miterlimit="4"/><g fill="#ffffff" fill-opacity="1"><g transform="translate(448.539555, 380.645468)"><g><path d="M 30.921875 0 L 22.265625 0 L 23.890625 -4.484375 L 15.53125 -4.484375 L 13.46875 -6.546875 L 10.265625 0 L 1.546875 0 L 10.375 -18.078125 C 10.625 -18.640625 10.953125 -19.160156 11.359375 -19.640625 C 11.765625 -20.117188 12.238281 -20.515625 12.78125 -20.828125 L 18 -23.40625 C 18.613281 -23.78125 19.273438 -23.96875 19.984375 -23.96875 L 31 -23.96875 C 31.34375 -23.96875 31.65625 -23.921875 31.9375 -23.828125 C 32.21875 -23.742188 32.441406 -23.601562 32.609375 -23.40625 L 36.625 -19.6875 C 36.96875 -19.375 37.175781 -18.976562 37.25 -18.5 C 37.320312 -18.019531 37.257812 -17.507812 37.0625 -16.96875 Z M 18.4375 -16.375 L 15.125 -9.75 L 25.8125 -9.75 L 28.203125 -16.375 C 28.398438 -16.875 28.375 -17.300781 28.125 -17.65625 C 27.875 -18.007812 27.492188 -18.1875 26.984375 -18.1875 L 21.015625 -18.1875 C 20.503906 -18.1875 20.015625 -18.007812 19.546875 -17.65625 C 19.078125 -17.300781 18.707031 -16.875 18.4375 -16.375 Z M 18.4375 -16.375 "/></g></g></g><g fill="#ffffff" fill-opacity="1"><g transform="translate(486.382369, 380.645468)"><g/></g></g><g fill="#ffffff" fill-opacity="1"><g transform="translate(506.444949, 380.645468)"><g><path d="M 16.234375 -7.578125 C 16.140625 -7.117188 16.179688 -6.703125 16.359375 -6.328125 C 16.546875 -5.960938 16.875 -5.78125 17.34375 -5.78125 L 20.25 -5.78125 C 20.757812 -5.78125 21.25 -5.957031 21.71875 -6.3125 C 22.1875 -6.664062 22.539062 -7.085938 22.78125 -7.578125 L 32.140625 -23.96875 L 41.453125 -23.96875 L 30.890625 -5.890625 C 30.566406 -5.347656 30.132812 -4.816406 29.59375 -4.296875 C 29.050781 -3.785156 28.5 -3.394531 27.9375 -3.125 L 23.265625 -0.546875 C 22.941406 -0.347656 22.613281 -0.207031 22.28125 -0.125 C 21.957031 -0.0390625 21.625 0 21.28125 0 L 12.265625 0 C 11.941406 0 11.640625 -0.0390625 11.359375 -0.125 C 11.078125 -0.207031 10.835938 -0.347656 10.640625 -0.546875 L 7.796875 -3.125 C 7.484375 -3.394531 7.238281 -3.785156 7.0625 -4.296875 C 6.894531 -4.816406 6.847656 -5.347656 6.921875 -5.890625 L 9.453125 -23.96875 L 18.78125 -23.96875 Z M 16.234375 -7.578125 "/></g></g></g><g fill="#ffffff" fill-opacity="1"><g transform="translate(544.582283, 380.645468)"><g><path d="M 12.84375 -3.0625 C 12.601562 -2.445312 12.195312 -1.976562 11.625 -1.65625 L 8.953125 -0.296875 C 8.628906 -0.0976562 8.269531 0 7.875 0 L 3.09375 0 L 10.671875 -20.90625 C 10.921875 -21.539062 11.335938 -22.007812 11.921875 -22.3125 L 14.578125 -23.671875 C 14.898438 -23.867188 15.253906 -23.96875 15.640625 -23.96875 L 20.4375 -23.96875 Z M 12.84375 -3.0625 "/></g></g></g><g fill="#ffffff" fill-opacity="1"><g transform="translate(564.019031, 380.645468)"><g><path d="M 11 -23.96875 L 29.8125 -23.96875 C 32.59375 -23.96875 34.582031 -23.398438 35.78125 -22.265625 C 36.976562 -21.140625 37.148438 -19.382812 36.296875 -17 L 32.25 -5.890625 C 32.070312 -5.367188 31.769531 -4.867188 31.34375 -4.390625 C 30.914062 -3.921875 30.421875 -3.523438 29.859375 -3.203125 L 24.671875 -0.546875 C 24.347656 -0.347656 24.015625 -0.207031 23.671875 -0.125 C 23.328125 -0.0390625 22.984375 0 22.640625 0 L 2.3125 0 Z M 26.203125 -18.1875 L 17.5625 -18.1875 L 13.0625 -5.78125 L 21.6875 -5.78125 C 22.195312 -5.78125 22.691406 -5.957031 23.171875 -6.3125 C 23.648438 -6.664062 23.976562 -7.085938 24.15625 -7.578125 L 27.359375 -16.375 C 27.546875 -16.894531 27.523438 -17.328125 27.296875 -17.671875 C 27.066406 -18.015625 26.703125 -18.1875 26.203125 -18.1875 Z M 26.203125 -18.1875 "/></g></g></g><g fill="#ffffff" fill-opacity="1"><g transform="translate(600.794279, 380.645468)"><g><path d="M 30.921875 0 L 22.265625 0 L 23.890625 -4.484375 L 15.53125 -4.484375 L 13.46875 -6.546875 L 10.265625 0 L 1.546875 0 L 10.375 -18.078125 C 10.625 -18.640625 10.953125 -19.160156 11.359375 -19.640625 C 11.765625 -20.117188 12.238281 -20.515625 12.78125 -20.828125 L 18 -23.40625 C 18.613281 -23.78125 19.273438 -23.96875 19.984375 -23.96875 L 31 -23.96875 C 31.34375 -23.96875 31.65625 -23.921875 31.9375 -23.828125 C 32.21875 -23.742188 32.441406 -23.601562 32.609375 -23.40625 L 36.625 -19.6875 C 36.96875 -19.375 37.175781 -18.976562 37.25 -18.5 C 37.320312 -18.019531 37.257812 -17.507812 37.0625 -16.96875 Z M 18.4375 -16.375 L 15.125 -9.75 L 25.8125 -9.75 L 28.203125 -16.375 C 28.398438 -16.875 28.375 -17.300781 28.125 -17.65625 C 27.875 -18.007812 27.492188 -18.1875 26.984375 -18.1875 L 21.015625 -18.1875 C 20.503906 -18.1875 20.015625 -18.007812 19.546875 -17.65625 C 19.078125 -17.300781 18.707031 -16.875 18.4375 -16.375 Z M 18.4375 -16.375 "/></g></g></g><g fill="#ffffff" fill-opacity="1"><g transform="translate(638.637093, 380.645468)"><g/></g></g><g fill="#ffffff" fill-opacity="1"><g transform="translate(658.699672, 380.645468)"><g><path d="M 12.140625 -3.0625 C 11.898438 -2.414062 11.484375 -1.945312 10.890625 -1.65625 L 8.203125 -0.296875 C 7.890625 -0.0976562 7.546875 0 7.171875 0 L 2.3125 0 L 11 -23.96875 L 36.265625 -23.96875 L 34.15625 -18.1875 L 17.640625 -18.1875 L 16.375 -14.6875 L 31.359375 -14.6875 L 29.375 -9.28125 L 14.390625 -9.28125 Z M 12.140625 -3.0625 "/></g></g></g><g fill="#ffffff" fill-opacity="1"><g transform="translate(692.41953, 380.645468)"><g><path d="M 12.84375 -3.0625 C 12.601562 -2.445312 12.195312 -1.976562 11.625 -1.65625 L 8.953125 -0.296875 C 8.628906 -0.0976562 8.269531 0 7.875 0 L 3.09375 0 L 10.671875 -20.90625 C 10.921875 -21.539062 11.335938 -22.007812 11.921875 -22.3125 L 14.578125 -23.671875 C 14.898438 -23.867188 15.253906 -23.96875 15.640625 -23.96875 L 20.4375 -23.96875 Z M 12.84375 -3.0625 "/></g></g></g><g fill="#ffffff" fill-opacity="1"><g transform="translate(711.856277, 380.645468)"><g><path d="M 36.78125 -23.96875 L 34.671875 -18.1875 L 19.625 -18.1875 C 19.15625 -18.1875 18.675781 -18.015625 18.1875 -17.671875 C 17.695312 -17.328125 17.351562 -16.894531 17.15625 -16.375 L 13.953125 -7.578125 C 13.773438 -7.085938 13.8125 -6.664062 14.0625 -6.3125 C 14.3125 -5.957031 14.691406 -5.78125 15.203125 -5.78125 L 30.1875 -5.78125 L 28.09375 0 L 9.796875 0 C 9.035156 0 8.484375 -0.179688 8.140625 -0.546875 L 4.859375 -3.203125 C 4.535156 -3.523438 4.34375 -3.921875 4.28125 -4.390625 C 4.226562 -4.867188 4.285156 -5.367188 4.453125 -5.890625 L 8.5 -17 C 9.363281 -19.382812 10.804688 -21.140625 12.828125 -22.265625 C 14.847656 -23.398438 17.234375 -23.96875 19.984375 -23.96875 Z M 36.78125 -23.96875 "/></g></g></g><g fill="#ffffff" fill-opacity="1"><g transform="translate(746.606862, 380.645468)"><g><path d="M 30.921875 0 L 22.265625 0 L 23.890625 -4.484375 L 15.53125 -4.484375 L 13.46875 -6.546875 L 10.265625 0 L 1.546875 0 L 10.375 -18.078125 C 10.625 -18.640625 10.953125 -19.160156 11.359375 -19.640625 C 11.765625 -20.117188 12.238281 -20.515625 12.78125 -20.828125 L 18 -23.40625 C 18.613281 -23.78125 19.273438 -23.96875 19.984375 -23.96875 L 31 -23.96875 C 31.34375 -23.96875 31.65625 -23.921875 31.9375 -23.828125 C 32.21875 -23.742188 32.441406 -23.601562 32.609375 -23.40625 L 36.625 -19.6875 C 36.96875 -19.375 37.175781 -18.976562 37.25 -18.5 C 37.320312 -18.019531 37.257812 -17.507812 37.0625 -16.96875 Z M 18.4375 -16.375 L 15.125 -9.75 L 25.8125 -9.75 L 28.203125 -16.375 C 28.398438 -16.875 28.375 -17.300781 28.125 -17.65625 C 27.875 -18.007812 27.492188 -18.1875 26.984375 -18.1875 L 21.015625 -18.1875 C 20.503906 -18.1875 20.015625 -18.007812 19.546875 -17.65625 C 19.078125 -17.300781 18.707031 -16.875 18.4375 -16.375 Z M 18.4375 -16.375 "/></g></g></g><g fill="#ffffff" fill-opacity="1"><g transform="translate(784.449676, 380.645468)"><g/></g></g><g fill="#ffffff" fill-opacity="1"><g transform="translate(804.512256, 380.645468)"><g><path d="M 19.46875 0 L 16.484375 0 L 15.75 -13.875 L 14.0625 -8.546875 L 10.96875 0 L 2.3125 0 L 11 -23.96875 L 20.4375 -23.96875 L 21.0625 -8.46875 L 32.90625 -23.96875 L 42.328125 -23.96875 L 33.640625 0 L 25 0 L 28.09375 -8.546875 L 30.296875 -13.875 Z M 19.46875 0 "/></g></g></g><g fill="#ffffff" fill-opacity="1"><g transform="translate(845.079148, 380.645468)"><g><path d="M 30.921875 0 L 22.265625 0 L 23.890625 -4.484375 L 15.53125 -4.484375 L 13.46875 -6.546875 L 10.265625 0 L 1.546875 0 L 10.375 -18.078125 C 10.625 -18.640625 10.953125 -19.160156 11.359375 -19.640625 C 11.765625 -20.117188 12.238281 -20.515625 12.78125 -20.828125 L 18 -23.40625 C 18.613281 -23.78125 19.273438 -23.96875 19.984375 -23.96875 L 31 -23.96875 C 31.34375 -23.96875 31.65625 -23.921875 31.9375 -23.828125 C 32.21875 -23.742188 32.441406 -23.601562 32.609375 -23.40625 L 36.625 -19.6875 C 36.96875 -19.375 37.175781 -18.976562 37.25 -18.5 C 37.320312 -18.019531 37.257812 -17.507812 37.0625 -16.96875 Z M 18.4375 -16.375 L 15.125 -9.75 L 25.8125 -9.75 L 28.203125 -16.375 C 28.398438 -16.875 28.375 -17.300781 28.125 -17.65625 C 27.875 -18.007812 27.492188 -18.1875 26.984375 -18.1875 L 21.015625 -18.1875 C 20.503906 -18.1875 20.015625 -18.007812 19.546875 -17.65625 C 19.078125 -17.300781 18.707031 -16.875 18.4375 -16.375 Z M 18.4375 -16.375 "/></g></g></g><g fill="#ffffff" fill-opacity="1"><g transform="translate(882.921962, 380.645468)"><g><path d="M 12.84375 -3.0625 C 12.601562 -2.445312 12.195312 -1.976562 11.625 -1.65625 L 8.953125 -0.296875 C 8.628906 -0.0976562 8.269531 0 7.875 0 L 3.09375 0 L 10.671875 -20.90625 C 10.921875 -21.539062 11.335938 -22.007812 11.921875 -22.3125 L 14.578125 -23.671875 C 14.898438 -23.867188 15.253906 -23.96875 15.640625 -23.96875 L 20.4375 -23.96875 Z M 12.84375 -3.0625 "/></g></g></g><g fill="#ffffff" fill-opacity="1"><g transform="translate(902.35871, 380.645468)"><g><path d="M 34.3125 -14.90625 L 31.4375 -7 C 31.238281 -6.457031 30.9375 -5.960938 30.53125 -5.515625 C 30.125 -5.078125 29.65625 -4.695312 29.125 -4.375 L 22.3125 -0.546875 C 21.988281 -0.347656 21.660156 -0.207031 21.328125 -0.125 C 20.992188 -0.0390625 20.660156 0 20.328125 0 L 2.171875 0 L 4.265625 -5.78125 L 20.546875 -5.78125 C 21.054688 -5.78125 21.546875 -5.957031 22.015625 -6.3125 C 22.484375 -6.664062 22.800781 -7.085938 22.96875 -7.578125 L 23.5625 -9.125 L 5.484375 -9.125 L 8.3125 -16.96875 C 8.757812 -18.125 9.570312 -19.03125 10.75 -19.6875 L 17.484375 -23.40625 C 17.828125 -23.601562 18.164062 -23.742188 18.5 -23.828125 C 18.832031 -23.921875 19.15625 -23.96875 19.46875 -23.96875 L 37.578125 -23.96875 L 35.484375 -18.1875 L 19.25 -18.1875 C 18.738281 -18.1875 18.242188 -18.015625 17.765625 -17.671875 C 17.285156 -17.328125 16.945312 -16.894531 16.75 -16.375 L 16.234375 -14.90625 Z M 34.3125 -14.90625 "/></g></g></g><g fill="#ffffff" fill-opacity="1"><g transform="translate(938.029601, 380.645468)"><g/></g></g><g fill="#ffffff" fill-opacity="1"><g transform="translate(958.09218, 380.645468)"><g><path d="M 15.640625 -7.21875 L 15.125 -11.484375 L 10.96875 0 L 2.3125 0 L 11 -23.96875 L 29.5625 -23.96875 C 32.332031 -23.96875 34.316406 -23.398438 35.515625 -22.265625 C 36.722656 -21.140625 36.898438 -19.382812 36.046875 -17 L 34.609375 -13.109375 C 34.429688 -12.585938 34.132812 -12.085938 33.71875 -11.609375 C 33.300781 -11.128906 32.8125 -10.734375 32.25 -10.421875 L 27.015625 -7.765625 C 26.703125 -7.566406 26.375 -7.425781 26.03125 -7.34375 C 25.6875 -7.257812 25.34375 -7.21875 25 -7.21875 Z M 17.5625 -18.1875 L 15.6875 -13 L 24.03125 -13 C 24.550781 -13 25.054688 -13.175781 25.546875 -13.53125 C 26.035156 -13.882812 26.367188 -14.304688 26.546875 -14.796875 L 27.09375 -16.375 C 27.289062 -16.894531 27.269531 -17.328125 27.03125 -17.671875 C 26.800781 -18.015625 26.441406 -18.1875 25.953125 -18.1875 Z M 17.5625 -18.1875 "/></g></g></g><g fill="#ffffff" fill-opacity="1"><g transform="translate(994.609747, 380.645468)"><g><path d="M 10.96875 0 L 2.3125 0 L 11 -23.96875 L 29.5625 -23.96875 C 32.332031 -23.96875 34.316406 -23.398438 35.515625 -22.265625 C 36.722656 -21.140625 36.898438 -19.382812 36.046875 -17 L 34.75 -13.546875 C 34.65625 -13.273438 34.523438 -13.03125 34.359375 -12.8125 C 34.203125 -12.59375 33.988281 -12.347656 33.71875 -12.078125 L 30.734375 -9.90625 C 29.847656 -9.238281 29.015625 -8.90625 28.234375 -8.90625 L 25.921875 -8.90625 L 30.84375 -0.21875 L 30.78125 0 L 20.09375 0 L 15.09375 -11.34375 Z M 17.5625 -18.1875 L 15.609375 -12.78125 L 23.921875 -12.78125 C 24.441406 -12.78125 24.945312 -12.960938 25.4375 -13.328125 C 25.925781 -13.691406 26.257812 -14.109375 26.4375 -14.578125 L 27.0625 -16.375 C 27.257812 -16.894531 27.238281 -17.328125 27 -17.671875 C 26.769531 -18.015625 26.410156 -18.1875 25.921875 -18.1875 Z M 17.5625 -18.1875 "/></g></g></g><g fill="#ffffff" fill-opacity="1"><g transform="translate(1030.501527, 380.645468)"><g><path d="M 30.921875 0 L 22.265625 0 L 23.890625 -4.484375 L 15.53125 -4.484375 L 13.46875 -6.546875 L 10.265625 0 L 1.546875 0 L 10.375 -18.078125 C 10.625 -18.640625 10.953125 -19.160156 11.359375 -19.640625 C 11.765625 -20.117188 12.238281 -20.515625 12.78125 -20.828125 L 18 -23.40625 C 18.613281 -23.78125 19.273438 -23.96875 19.984375 -23.96875 L 31 -23.96875 C 31.34375 -23.96875 31.65625 -23.921875 31.9375 -23.828125 C 32.21875 -23.742188 32.441406 -23.601562 32.609375 -23.40625 L 36.625 -19.6875 C 36.96875 -19.375 37.175781 -18.976562 37.25 -18.5 C 37.320312 -18.019531 37.257812 -17.507812 37.0625 -16.96875 Z M 18.4375 -16.375 L 15.125 -9.75 L 25.8125 -9.75 L 28.203125 -16.375 C 28.398438 -16.875 28.375 -17.300781 28.125 -17.65625 C 27.875 -18.007812 27.492188 -18.1875 26.984375 -18.1875 L 21.015625 -18.1875 C 20.503906 -18.1875 20.015625 -18.007812 19.546875 -17.65625 C 19.078125 -17.300781 18.707031 -16.875 18.4375 -16.375 Z M 18.4375 -16.375 "/></g></g></g><g fill="#ffffff" fill-opacity="1"><g transform="translate(1068.344341, 380.645468)"><g><path d="M 8.140625 -18.1875 L 10.234375 -23.96875 L 38.6875 -23.96875 L 36.59375 -18.1875 L 26.6875 -18.1875 L 21.203125 -3.0625 C 20.953125 -2.414062 20.535156 -1.945312 19.953125 -1.65625 L 17.296875 -0.296875 C 16.984375 -0.0976562 16.628906 0 16.234375 0 L 11.453125 0 L 18.03125 -18.1875 Z M 8.140625 -18.1875 "/></g></g></g><g fill="#ffffff" fill-opacity="1"><g transform="translate(1104.493804, 380.645468)"><g><path d="M 12.84375 -3.0625 C 12.601562 -2.445312 12.195312 -1.976562 11.625 -1.65625 L 8.953125 -0.296875 C 8.628906 -0.0976562 8.269531 0 7.875 0 L 3.09375 0 L 10.671875 -20.90625 C 10.921875 -21.539062 11.335938 -22.007812 11.921875 -22.3125 L 14.578125 -23.671875 C 14.898438 -23.867188 15.253906 -23.96875 15.640625 -23.96875 L 20.4375 -23.96875 Z M 12.84375 -3.0625 "/></g></g></g><g fill="#ffffff" fill-opacity="1"><g transform="translate(1123.930552, 380.645468)"><g><path d="M 36.78125 -23.96875 L 34.671875 -18.1875 L 19.625 -18.1875 C 19.15625 -18.1875 18.675781 -18.015625 18.1875 -17.671875 C 17.695312 -17.328125 17.351562 -16.894531 17.15625 -16.375 L 13.953125 -7.578125 C 13.773438 -7.085938 13.8125 -6.664062 14.0625 -6.3125 C 14.3125 -5.957031 14.691406 -5.78125 15.203125 -5.78125 L 30.1875 -5.78125 L 28.09375 0 L 9.796875 0 C 9.035156 0 8.484375 -0.179688 8.140625 -0.546875 L 4.859375 -3.203125 C 4.535156 -3.523438 4.34375 -3.921875 4.28125 -4.390625 C 4.226562 -4.867188 4.285156 -5.367188 4.453125 -5.890625 L 8.5 -17 C 9.363281 -19.382812 10.804688 -21.140625 12.828125 -22.265625 C 14.847656 -23.398438 17.234375 -23.96875 19.984375 -23.96875 Z M 36.78125 -23.96875 "/></g></g></g><g fill="#ffffff" fill-opacity="1"><g transform="translate(1158.681137, 380.645468)"><g><path d="M 30.921875 0 L 22.265625 0 L 23.890625 -4.484375 L 15.53125 -4.484375 L 13.46875 -6.546875 L 10.265625 0 L 1.546875 0 L 10.375 -18.078125 C 10.625 -18.640625 10.953125 -19.160156 11.359375 -19.640625 C 11.765625 -20.117188 12.238281 -20.515625 12.78125 -20.828125 L 18 -23.40625 C 18.613281 -23.78125 19.273438 -23.96875 19.984375 -23.96875 L 31 -23.96875 C 31.34375 -23.96875 31.65625 -23.921875 31.9375 -23.828125 C 32.21875 -23.742188 32.441406 -23.601562 32.609375 -23.40625 L 36.625 -19.6875 C 36.96875 -19.375 37.175781 -18.976562 37.25 -18.5 C 37.320312 -18.019531 37.257812 -17.507812 37.0625 -16.96875 Z M 18.4375 -16.375 L 15.125 -9.75 L 25.8125 -9.75 L 28.203125 -16.375 C 28.398438 -16.875 28.375 -17.300781 28.125 -17.65625 C 27.875 -18.007812 27.492188 -18.1875 26.984375 -18.1875 L 21.015625 -18.1875 C 20.503906 -18.1875 20.015625 -18.007812 19.546875 -17.65625 C 19.078125 -17.300781 18.707031 -16.875 18.4375 -16.375 Z M 18.4375 -16.375 "/></g></g></g></svg>